<!-- Generated by dot version 1.7.14 (Mon Oct 21 18:19:04 MDT 2002)
     For user: (alan)    Title: pp_fsm    Pages: 1-->
<svg width="742px" height="508px" xmlns='http://www.w3.org/2000/svg' xmlns:xlink='http://www.w3.org/1999/xlink'>
<g id="pp_fsm" class="graph">
<g id="NewMsg" class="node">
<ellipse cx="651" cy="16" rx="23" ry="9" style="fill:none;stroke:black"/>
<text text-anchor="middle" x="651" y="19" style="font-family:Helvetica;font-size:7.60">NewMsg</text>
</g>
<g id="StartLine" class="node">
<ellipse cx="607" cy="63" rx="22" ry="9" style="fill:none;stroke:black"/>
<text text-anchor="middle" x="607" y="65" style="font-family:Helvetica;font-size:7.60">StartLine</text>
</g>
<g id="NewMsg-&gt;StartLine" class="edge">
<g style="fill:none;stroke:black"><path d="M638 24C632 28 625 33 623 35 619 39 616 44 614 48"/></g>
<polygon style="fill:black;stroke:black" points="613,47 611,53 615,49 613,47"/>
<text text-anchor="middle" x="631" y="41" style="font-family:Helvetica;font-size:4.34">*, Add </text>
</g>
<g id="NewMsgCrLf" class="node">
<ellipse cx="698" cy="63" rx="32" ry="9" style="fill:none;stroke:black"/>
<text text-anchor="middle" x="698" y="65" style="font-family:Helvetica;font-size:7.60">NewMsgCrLf</text>
</g>
<g id="NewMsg-&gt;NewMsgCrLf" class="edge">
<g style="fill:none;stroke:black"><path d="M664 24C671 29 679 34 681 35 681 36 685 42 689 49"/></g>
<polygon style="fill:black;stroke:black" points="688,49 692,53 690,47 688,49"/>
<text text-anchor="middle" x="696" y="41" style="font-family:Helvetica;font-size:4.34">CR, None </text>
</g>
<g id="StartLine-&gt;StartLine" class="edge">
<g style="fill:none;stroke:black"><path d="M622 70C631 71 639 68 639 63 639 58 634 55 628 55"/></g>
<polygon style="fill:black;stroke:black" points="628,54 622,55 628,57 628,54"/>
<text text-anchor="middle" x="647" y="64" style="font-family:Helvetica;font-size:4.34">*, Add</text>
</g>
<g id="StartLineCrLf" class="node">
<ellipse cx="607" cy="109" rx="32" ry="9" style="fill:none;stroke:black"/>
<text text-anchor="middle" x="607" y="112" style="font-family:Helvetica;font-size:7.60">StartLineCrLf</text>
</g>
<g id="StartLine-&gt;StartLineCrLf" class="edge">
<g style="fill:none;stroke:black"><path d="M607 72C607 79 607 87 607 94"/></g>
<polygon style="fill:black;stroke:black" points="606,94 607,99 608,94 606,94"/>
<text text-anchor="middle" x="619" y="87" style="font-family:Helvetica;font-size:4.34">CR, None</text>
</g>
<g id="NewMsgCrLf-&gt;NewMsg" class="edge">
<g style="fill:none;stroke:black"><path d="M649 29C648 34 649 39 651 43 656 50 663 54 670 58"/></g>
<polygon style="fill:black;stroke:black" points="650,31 649,26 647,30 650,31"/>
<text text-anchor="middle" x="665" y="41" style="font-family:Helvetica;font-size:4.34">LF, Discard </text>
</g>
<g id="EndMsg" class="node">
<ellipse cx="476" cy="483" rx="21" ry="9" style="fill:none;stroke:black"/>
<text text-anchor="middle" x="476" y="485" style="font-family:Helvetica;font-size:7.60">EndMsg</text>
</g>
<g id="NewMsgCrLf-&gt;EndMsg" class="edge">
<g style="fill:none;stroke:black"><path d="M698 72C698 82 697 97 698 109 698 109 698 109 698 436 697 472 665 471 632 482 631 482 546 483 501 483"/></g>
<polygon style="fill:black;stroke:black" points="503,481 498,483 503,484 503,481"/>
<text text-anchor="middle" x="714" y="274" style="font-family:Helvetica;font-size:4.34">*, Bad|Discard </text>
</g>
<g id="StartLineCrLf-&gt;EndMsg" class="edge">
<g style="fill:none;stroke:black"><path d="M618 118C631 129 650 147 651 156 651 156 651 156 651 436 650 505 571 472 503 481"/></g>
<polygon style="fill:black;stroke:black" points="503,480 498,482 503,482 503,480"/>
<text text-anchor="middle" x="667" y="298" style="font-family:Helvetica;font-size:4.34">*, Bad|Discard</text>
</g>
<g id="BuildHdr" class="node">
<ellipse cx="520" cy="156" rx="23" ry="9" style="fill:none;stroke:black"/>
<text text-anchor="middle" x="520" y="159" style="font-family:Helvetica;font-size:7.60">BuildHdr</text>
</g>
<g id="StartLineCrLf-&gt;BuildHdr" class="edge">
<g style="fill:none;stroke:black"><path d="M591 118C576 125 555 137 540 146"/></g>
<polygon style="fill:black;stroke:black" points="539,144 535,148 540,147 539,144"/>
<text text-anchor="middle" x="596" y="134" style="font-family:Helvetica;font-size:4.34">LF, Reset|Fline|Discard</text>
</g>
<g id="BuildHdr-&gt;BuildHdr" class="edge">
<g style="fill:none;stroke:black"><path d="M537 163C545 164 553 162 553 156 553 152 549 149 543 149"/></g>
<polygon style="fill:black;stroke:black" points="542,147 537,149 542,150 542,147"/>
<text text-anchor="middle" x="562" y="158" style="font-family:Helvetica;font-size:4.34">*, Add</text>
</g>
<g id="EWSPostHdr" class="node">
<ellipse cx="567" cy="203" rx="30" ry="9" style="fill:none;stroke:black"/>
<text text-anchor="middle" x="567" y="205" style="font-family:Helvetica;font-size:7.60">EWSPostHdr</text>
</g>
<g id="BuildHdr-&gt;EWSPostHdr" class="edge">
<g style="fill:none;stroke:black"><path d="M530 165C537 172 546 182 554 190"/></g>
<polygon style="fill:black;stroke:black" points="553,190 557,193 555,188 553,190"/>
<text text-anchor="middle" x="559" y="181" style="font-family:Helvetica;font-size:4.34">LWS, None</text>
</g>
<g id="EWSPostColon" class="node">
<ellipse cx="325" cy="249" rx="34" ry="9" style="fill:none;stroke:black"/>
<text text-anchor="middle" x="325" y="252" style="font-family:Helvetica;font-size:7.60">EWSPostColon</text>
</g>
<g id="BuildHdr-&gt;EWSPostColon" class="edge">
<g style="fill:none;stroke:black"><path d="M504 163C481 173 442 190 436 193 404 208 368 226 346 238"/></g>
<polygon style="fill:black;stroke:black" points="346,237 342,241 347,240 346,237"/>
<text text-anchor="middle" x="476" y="204" style="font-family:Helvetica;font-size:4.34">COLON, Hdr|Reset|DiscardKnown</text>
</g>
<g id="EWSPostHdr-&gt;EndMsg" class="edge">
<g style="fill:none;stroke:black"><path d="M580 212C590 220 602 234 603 249 603 249 603 249 603 436 602 442 535 464 499 476"/></g>
<polygon style="fill:black;stroke:black" points="499,474 494,477 499,477 499,474"/>
<text text-anchor="middle" x="619" y="344" style="font-family:Helvetica;font-size:4.34">*, Bad|Discard</text>
</g>
<g id="EWSPostHdr-&gt;EWSPostHdr" class="edge">
<g style="fill:none;stroke:black"><path d="M588 210C598 211 607 208 607 203 607 198 600 196 592 196"/></g>
<polygon style="fill:black;stroke:black" points="593,194 588,196 593,197 593,194"/>
<text text-anchor="middle" x="621" y="204" style="font-family:Helvetica;font-size:4.34">LWS, None</text>
</g>
<g id="EWSPostHdr-&gt;EWSPostColon" class="edge">
<g style="fill:none;stroke:black"><path d="M540 207C495 216 406 234 358 243"/></g>
<polygon style="fill:black;stroke:black" points="359,241 354,244 359,244 359,241"/>
<text text-anchor="middle" x="505" y="228" style="font-family:Helvetica;font-size:4.34">COLON, Hdr|Reset|DiscardKnown</text>
</g>
<g id="EWSPostColon-&gt;EWSPostColon" class="edge">
<g style="fill:none;stroke:black"><path d="M349 256C360 257 369 255 369 249 369 244 362 242 353 242"/></g>
<polygon style="fill:black;stroke:black" points="354,241 349,242 354,243 354,241"/>
<text text-anchor="middle" x="400" y="251" style="font-family:Helvetica;font-size:4.34">LWS, Reset|DiscardKnown</text>
</g>
<g id="BuildData" class="node">
<ellipse cx="332" cy="296" rx="24" ry="9" style="fill:none;stroke:black"/>
<text text-anchor="middle" x="332" y="299" style="font-family:Helvetica;font-size:7.60">BuildData</text>
</g>
<g id="EWSPostColon-&gt;BuildData" class="edge">
<g style="fill:none;stroke:black"><path d="M319 259C317 262 316 266 315 269 314 273 313 274 315 276 316 278 318 281 320 284"/></g>
<polygon style="fill:black;stroke:black" points="318,284 323,287 321,282 318,284"/>
<text text-anchor="middle" x="323" y="274" style="font-family:Helvetica;font-size:4.34">*, Add</text>
</g>
<g id="EmptyHdrCrLf" class="node">
<ellipse cx="152" cy="296" rx="35" ry="9" style="fill:none;stroke:black"/>
<text text-anchor="middle" x="152" y="299" style="font-family:Helvetica;font-size:7.60">EmptyHdrCrLf</text>
</g>
<g id="EWSPostColon-&gt;EmptyHdrCrLf" class="edge">
<g style="fill:none;stroke:black"><path d="M291 250C241 253 153 259 143 269 141 272 142 273 143 276 143 278 144 280 145 281"/></g>
<polygon style="fill:black;stroke:black" points="144,282 147,286 146,281 144,282"/>
<text text-anchor="middle" x="174" y="274" style="font-family:Helvetica;font-size:4.34">CR, Reset|DiscardKnown</text>
</g>
<g id="InAng" class="node">
<ellipse cx="489" cy="343" rx="17" ry="9" style="fill:none;stroke:black"/>
<text text-anchor="middle" x="489" y="345" style="font-family:Helvetica;font-size:7.60">InAng</text>
</g>
<g id="EWSPostColon-&gt;InAng" class="edge">
<g style="fill:none;stroke:black"><path d="M356 254C391 259 443 267 448 269 468 280 464 294 484 306 498 314 510 303 520 316 522 318 522 320 520 323 518 328 513 332 508 335"/></g>
<polygon style="fill:black;stroke:black" points="508,333 504,337 510,336 508,333"/>
<text text-anchor="middle" x="518" y="298" style="font-family:Helvetica;font-size:4.34">LAQUOT, Add  (dCommaSep)</text>
</g>
<g id="InQ" class="node">
<ellipse cx="198" cy="343" rx="14" ry="9" style="fill:none;stroke:black"/>
<text text-anchor="middle" x="198" y="345" style="font-family:Helvetica;font-size:7.60">InQ</text>
</g>
<g id="EWSPostColon-&gt;InQ" class="edge">
<g style="fill:none;stroke:black"><path d="M298 255C268 263 221 281 201 316 198 319 197 324 197 328"/></g>
<polygon style="fill:black;stroke:black" points="196,327 197,333 198,327 196,327"/>
<text text-anchor="middle" x="258" y="298" style="font-family:Helvetica;font-size:4.34">QUOT, Add  (dCommaSep)</text>
</g>
<g id="BuildData-&gt;EWSPostColon" class="edge">
<g style="fill:none;stroke:black"><path d="M331 263C332 266 334 268 334 269 334 272 334 280 333 286"/></g>
<polygon style="fill:black;stroke:black" points="333,263 330,259 330,264 333,263"/>
<text text-anchor="middle" x="390" y="274" style="font-family:Helvetica;font-size:4.34">COMMA,  Data|Reset|DiscardKnown (dCommaSep)</text>
</g>
<g id="BuildData-&gt;BuildData" class="edge">
<g style="fill:none;stroke:black"><path d="M349 303C359 304 367 302 367 296 367 291 361 288 354 289"/></g>
<polygon style="fill:black;stroke:black" points="355,287 349,289 355,290 355,287"/>
<text text-anchor="middle" x="375" y="298" style="font-family:Helvetica;font-size:4.34">*, Add</text>
</g>
<g id="BuildData-&gt;InAng" class="edge">
<g style="fill:none;stroke:black"><path d="M350 303C368 310 395 320 406 323 427 329 452 335 469 339"/></g>
<polygon style="fill:black;stroke:black" points="467,340 472,339 467,337 467,340"/>
<text text-anchor="middle" x="440" y="321" style="font-family:Helvetica;font-size:4.34">LAQUOT, Add (dCommaSep)</text>
</g>
<g id="BuildData-&gt;InQ" class="edge">
<g style="fill:none;stroke:black"><path d="M309 300C293 303 273 305 270 306 255 308 216 306 205 316 205 316 203 322 201 328"/></g>
<polygon style="fill:black;stroke:black" points="200,327 200,333 203,328 200,327"/>
<text text-anchor="middle" x="237" y="321" style="font-family:Helvetica;font-size:4.34">QUOT, Add (dCommaSep)</text>
</g>
<g id="BuildDataCrLf" class="node">
<ellipse cx="323" cy="343" rx="34" ry="9" style="fill:none;stroke:black"/>
<text text-anchor="middle" x="323" y="345" style="font-family:Helvetica;font-size:7.60">BuildDataCrLf</text>
</g>
<g id="BuildData-&gt;BuildDataCrLf" class="edge">
<g style="fill:none;stroke:black"><path d="M330 306C329 312 327 320 325 328"/></g>
<polygon style="fill:black;stroke:black" points="324,327 324,333 327,328 324,327"/>
<text text-anchor="middle" x="344" y="321" style="font-family:Helvetica;font-size:4.34">CR, None|Flat</text>
</g>
<g id="EmptyHdrCrLf-&gt;EndMsg" class="edge">
<g style="fill:none;stroke:black"><path d="M152 306C152 316 152 330 152 343 152 343 152 343 152 436 152 499 370 472 432 481 436 481 437 482 441 482 442 482 445 482 449 482"/></g>
<polygon style="fill:black;stroke:black" points="449,483 454,482 449,481 449,483"/>
<text text-anchor="middle" x="169" y="391" style="font-family:Helvetica;font-size:4.34">*, Bad|Discard</text>
</g>
<g id="EmptyHdrCont" class="node">
<ellipse cx="46" cy="343" rx="35" ry="9" style="fill:none;stroke:black"/>
<text text-anchor="middle" x="46" y="345" style="font-family:Helvetica;font-size:7.60">EmptyHdrCont</text>
</g>
<g id="EmptyHdrCrLf-&gt;EmptyHdrCont" class="edge">
<g style="fill:none;stroke:black"><path d="M126 303C114 306 101 310 89 316 84 318 72 325 63 331"/></g>
<polygon style="fill:black;stroke:black" points="63,329 59,333 65,332 63,329"/>
<text text-anchor="middle" x="121" y="321" style="font-family:Helvetica;font-size:4.34">LF, Reset|DiscardKnown</text>
</g>
<g id="EmptyHdrCont-&gt;BuildHdr" class="edge">
<g style="fill:none;stroke:black"><path d="M493 157C389 161 21 179 21 203 21 203 21 203 21 296 21 314 25 323 35 333"/></g>
<polygon style="fill:black;stroke:black" points="492,158 497,157 492,155 492,158"/>
<text text-anchor="middle" x="44" y="251" style="font-family:Helvetica;font-size:4.34">*, Reset|Back|Discard</text>
</g>
<g id="EmptyHdrCont-&gt;EWSPostColon" class="edge">
<g style="fill:none;stroke:black"><path d="M287 250C282 250 278 250 275 250 224 253 84 248 51 286 40 299 41 320 44 333"/></g>
<polygon style="fill:black;stroke:black" points="286,251 291,250 286,249 286,251"/>
<text text-anchor="middle" x="83" y="298" style="font-family:Helvetica;font-size:4.34">LWS, Reset|DiscardKnown</text>
</g>
<g id="InAng-&gt;BuildData" class="edge">
<g style="fill:none;stroke:black"><path d="M362 297C399 299 458 303 476 316 481 320 485 327 487 333"/></g>
<polygon style="fill:black;stroke:black" points="362,295 357,297 362,298 362,295"/>
<text text-anchor="middle" x="500" y="321" style="font-family:Helvetica;font-size:4.34">RAQUOT, Add</text>
</g>
<g id="InAng-&gt;InAng" class="edge">
<g style="fill:none;stroke:black"><path d="M502 350C510 351 517 349 517 343 517 338 513 336 507 336"/></g>
<polygon style="fill:black;stroke:black" points="507,334 502,336 507,337 507,334"/>
<text text-anchor="middle" x="525" y="344" style="font-family:Helvetica;font-size:4.34">*, Add</text>
</g>
<g id="InAngQ" class="node">
<ellipse cx="498" cy="389" rx="21" ry="9" style="fill:none;stroke:black"/>
<text text-anchor="middle" x="498" y="392" style="font-family:Helvetica;font-size:7.60">InAngQ</text>
</g>
<g id="InAng-&gt;InAngQ" class="edge">
<g style="fill:none;stroke:black"><path d="M491 352C492 359 493 367 495 375"/></g>
<polygon style="fill:black;stroke:black" points="493,375 496,380 496,374 493,375"/>
<text text-anchor="middle" x="508" y="368" style="font-family:Helvetica;font-size:4.34">QUOT, Add</text>
</g>
<g id="InQ-&gt;BuildData" class="edge">
<g style="fill:none;stroke:black"><path d="M312 306C299 311 283 318 267 323 262 325 230 334 211 339"/></g>
<polygon style="fill:black;stroke:black" points="312,307 316,304 311,305 312,307"/>
<text text-anchor="middle" x="305" y="321" style="font-family:Helvetica;font-size:4.34">QUOT, Add</text>
</g>
<g id="InQ-&gt;InQ" class="edge">
<g style="fill:none;stroke:black"><path d="M209 349C216 351 222 349 222 343 222 338 218 336 214 336"/></g>
<polygon style="fill:black;stroke:black" points="214,335 209,336 214,337 214,335"/>
<text text-anchor="middle" x="230" y="344" style="font-family:Helvetica;font-size:4.34">*, Add</text>
</g>
<g id="InQEsc" class="node">
<ellipse cx="228" cy="389" rx="19" ry="9" style="fill:none;stroke:black"/>
<text text-anchor="middle" x="228" y="392" style="font-family:Helvetica;font-size:7.60">InQEsc</text>
</g>
<g id="InQ-&gt;InQEsc" class="edge">
<g style="fill:none;stroke:black"><path d="M196 352C195 359 193 367 195 370 196 371 203 375 210 380"/></g>
<polygon style="fill:black;stroke:black" points="209,381 215,382 210,378 209,381"/>
<text text-anchor="middle" x="212" y="368" style="font-family:Helvetica;font-size:4.34">LSLASH, Add</text>
</g>
<g id="BuildDataCrLf-&gt;EndMsg" class="edge">
<g style="fill:none;stroke:black"><path d="M324 352C325 358 328 364 330 370 343 406 344 418 371 446 397 474 411 479 449 482"/></g>
<polygon style="fill:black;stroke:black" points="449,483 454,482 449,480 449,483"/>
<text text-anchor="middle" x="363" y="414" style="font-family:Helvetica;font-size:4.34">*, Bad|Discard</text>
</g>
<g id="CheckCont" class="node">
<ellipse cx="384" cy="389" rx="26" ry="9" style="fill:none;stroke:black"/>
<text text-anchor="middle" x="384" y="392" style="font-family:Helvetica;font-size:7.60">CheckCont</text>
</g>
<g id="BuildDataCrLf-&gt;CheckCont" class="edge">
<g style="fill:none;stroke:black"><path d="M328 352C332 360 337 369 338 370 340 372 350 376 361 381"/></g>
<polygon style="fill:black;stroke:black" points="360,382 365,382 361,379 360,382"/>
<text text-anchor="middle" x="354" y="368" style="font-family:Helvetica;font-size:4.34">LF, None|Flat</text>
</g>
<g id="CheckCont-&gt;BuildHdr" class="edge">
<g style="fill:none;stroke:black"><path d="M519 171C517 195 517 243 538 276 543 284 549 280 553 286 557 294 555 298 553 306 550 327 548 333 538 352 533 361 533 365 525 370 523 370 449 381 409 386"/></g>
<polygon style="fill:black;stroke:black" points="520,171 519,166 517,171 520,171"/>
<text text-anchor="middle" x="567" y="274" style="font-family:Helvetica;font-size:4.34">*, Data|Reset|Back|Discard</text>
</g>
<g id="CheckCont-&gt;BuildData" class="edge">
<g style="fill:none;stroke:black"><path d="M350 306C355 310 361 313 362 316 369 326 378 362 381 380"/></g>
<polygon style="fill:black;stroke:black" points="351,306 346,304 350,308 351,306"/>
<text text-anchor="middle" x="387" y="344" style="font-family:Helvetica;font-size:4.34">LWS, Add </text>
</g>
<g id="CheckEndHdr" class="node">
<ellipse cx="409" cy="436" rx="33" ry="9" style="fill:none;stroke:black"/>
<text text-anchor="middle" x="409" y="439" style="font-family:Helvetica;font-size:7.60">CheckEndHdr</text>
</g>
<g id="CheckCont-&gt;CheckEndHdr" class="edge">
<g style="fill:none;stroke:black"><path d="M389 399C393 406 397 414 401 422"/></g>
<polygon style="fill:black;stroke:black" points="400,422 404,426 403,421 400,422"/>
<text text-anchor="middle" x="423" y="414" style="font-family:Helvetica;font-size:4.34">CR, Data|Reset|Discard</text>
</g>
<g id="CheckEndHdr-&gt;EndMsg" class="edge">
<g style="fill:none;stroke:black"><path d="M431 444C442 447 454 452 458 456 460 457 464 463 468 470"/></g>
<polygon style="fill:black;stroke:black" points="466,470 470,474 468,468 466,470"/>
<text text-anchor="middle" x="479" y="461" style="font-family:Helvetica;font-size:4.34">*, Bad|Discard</text>
</g>
<g id="CheckEndHdr-&gt;EndMsg" class="edge">
<g style="fill:none;stroke:black"><path d="M406 446C405 452 405 458 409 463 421 481 433 479 451 480"/></g>
<polygon style="fill:black;stroke:black" points="449,481 455,480 449,478 449,481"/>
<text text-anchor="middle" x="433" y="461" style="font-family:Helvetica;font-size:4.34">LF, EndHdrs|Discard</text>
</g>
<g id="InAngQ-&gt;InAng" class="edge">
<g style="fill:none;stroke:black"><path d="M510 350C515 352 521 357 525 362 530 370 521 377 513 382"/></g>
<polygon style="fill:black;stroke:black" points="510,349 505,348 509,351 510,349"/>
<text text-anchor="middle" x="540" y="368" style="font-family:Helvetica;font-size:4.34">QUOT, Add</text>
</g>
<g id="InAngQ-&gt;InAngQ" class="edge">
<g style="fill:none;stroke:black"><path d="M513 396C521 398 529 395 529 389 529 385 524 382 519 382"/></g>
<polygon style="fill:black;stroke:black" points="518,381 513,382 518,383 518,381"/>
<text text-anchor="middle" x="537" y="391" style="font-family:Helvetica;font-size:4.34">*, Add</text>
</g>
<g id="InAngQEsc" class="node">
<ellipse cx="500" cy="436" rx="27" ry="9" style="fill:none;stroke:black"/>
<text text-anchor="middle" x="500" y="439" style="font-family:Helvetica;font-size:7.60">InAngQEsc</text>
</g>
<g id="InAngQ-&gt;InAngQEsc" class="edge">
<g style="fill:none;stroke:black"><path d="M487 398C485 401 482 405 480 409 479 412 479 414 480 417 480 417 483 420 486 423"/></g>
<polygon style="fill:black;stroke:black" points="485,424 490,427 487,422 485,424"/>
<text text-anchor="middle" x="498" y="414" style="font-family:Helvetica;font-size:4.34">LSLASH, Add</text>
</g>
<g id="InAngQEsc-&gt;InAngQ" class="edge">
<g style="fill:none;stroke:black"><path d="M510 401C513 404 516 407 517 409 518 412 518 414 517 417 515 420 513 424 510 427"/></g>
<polygon style="fill:black;stroke:black" points="512,401 507,398 510,403 512,401"/>
<text text-anchor="middle" x="525" y="414" style="font-family:Helvetica;font-size:4.34">*, Add</text>
</g>
<g id="InQEsc-&gt;InQ" class="edge">
<g style="fill:none;stroke:black"><path d="M214 350C221 354 229 359 231 362 233 365 231 367 231 370 231 373 230 376 230 380"/></g>
<polygon style="fill:black;stroke:black" points="215,349 210,348 214,351 215,349"/>
<text text-anchor="middle" x="240" y="368" style="font-family:Helvetica;font-size:4.34">*, Add</text>
</g>
</g>
</svg>
