<!-- Generated by dot version 1.7.14 (Mon Oct 21 18:19:04 MDT 2002)
     For user: (alan)    Title: srv_inv_tree    Pages: 1-->
<svg width="497px" height="582px" xmlns='http://www.w3.org/2000/svg' xmlns:xlink='http://www.w3.org/1999/xlink'>
<g id="srv_inv_tree" class="graph">
<g id="n1" class="node">
</g>
<g id="n2" class="node">
</g>
<g id="n1-&gt;n2" class="edge">
<g style="fill:none;stroke:black"><path d="M140 378C132 359 113 313 102 290"/></g>
<polygon style="fill:black;stroke:black" points="104,290 101,286 101,291 104,290"/>
<text text-anchor="middle" transform="rotate(-90 114 340)" x="114" y="340" style="font-family:Helvetica;font-size:4.49">cSeq=INV</text>
</g>
<g id="n3" class="node">
<polygon style="fill:none;stroke:black" points="134,253 134,299 154,299 154,253 134,253"/>
<text text-anchor="middle" transform="rotate(-90 146 276)" x="146" y="276" style="font-family:Helvetica;font-size:4.49">Proc. SRV non-INV</text>
</g>
<g id="n1-&gt;n3" class="edge">
<g style="fill:none;stroke:black"><path d="M144 378C144 361 144 328 144 304"/></g>
<polygon style="fill:black;stroke:black" points="145,305 144,299 142,305 145,305"/>
<text text-anchor="middle" transform="rotate(-90 142 340)" x="142" y="340" style="font-family:Helvetica;font-size:4.49">CANCEL</text>
</g>
<g id="n9" class="node">
<polygon style="fill:none;stroke:black" points="10,10 10,54 37,54 37,10 10,10"/>
<text text-anchor="middle" transform="rotate(-90 15 32)" x="15" y="32" style="font-family:Helvetica;font-size:4.49">snd(RESP)</text>
<text text-anchor="middle" transform="rotate(-90 20 32)" x="20" y="32" style="font-family:Helvetica;font-size:4.49">mach=stale</text>
<text text-anchor="middle" transform="rotate(-90 25 32)" x="25" y="32" style="font-family:Helvetica;font-size:4.49">state=term?</text>
<text text-anchor="middle" transform="rotate(-90 30 32)" x="30" y="32" style="font-family:Helvetica;font-size:4.49">setTimer(STALE)</text>
<text text-anchor="middle" transform="rotate(-90 35 32)" x="35" y="32" style="font-family:Helvetica;font-size:4.49">TS</text>
</g>
<g id="n2-&gt;n9" class="edge">
<g style="fill:none;stroke:black"><path d="M91 268C84 255 83 249 78 232 58 171 39 98 30 59"/></g>
<polygon style="fill:black;stroke:black" points="31,59 28,54 28,60 31,59"/>
<text text-anchor="middle" transform="rotate(-90 45 149)" x="45" y="149" style="font-family:Helvetica;font-size:4.49">2xx</text>
</g>
<g id="n8" class="node">
<polygon style="fill:none;stroke:black" points="47,8 47,57 69,57 69,8 47,8"/>
<text text-anchor="middle" transform="rotate(-90 53 32)" x="53" y="32" style="font-family:Helvetica;font-size:4.49">snd(RESP)</text>
<text text-anchor="middle" transform="rotate(-90 58 32)" x="58" y="32" style="font-family:Helvetica;font-size:4.49">setTimer(H)</text>
<text text-anchor="middle" transform="rotate(-90 63 32)" x="63" y="32" style="font-family:Helvetica;font-size:4.49">unrel? -&gt; setTimer(G)</text>
<text text-anchor="middle" transform="rotate(-90 68 32)" x="68" y="32" style="font-family:Helvetica;font-size:4.49">T1</text>
</g>
<g id="n2-&gt;n8" class="edge">
<g style="fill:none;stroke:black"><path d="M95 266C92 255 89 238 87 232 81 200 68 109 62 61"/></g>
<polygon style="fill:black;stroke:black" points="64,63 61,57 61,63 64,63"/>
<text text-anchor="middle" transform="rotate(-90 70 149)" x="70" y="149" style="font-family:Helvetica;font-size:4.49">300-699</text>
</g>
<g id="n4" class="node">
</g>
<g id="n2-&gt;n4" class="edge">
<g style="fill:none;stroke:black"><path d="M97 266C97 244 97 191 97 164"/></g>
<polygon style="fill:black;stroke:black" points="98,165 97,159 95,165 98,165"/>
<text text-anchor="middle" transform="rotate(-90 95 213)" x="95" y="213" style="font-family:Helvetica;font-size:4.49">101-199</text>
</g>
<g id="n5" class="node">
</g>
<g id="n2-&gt;n5" class="edge">
<g style="fill:none;stroke:black"><path d="M100 267C108 245 128 190 137 163"/></g>
<polygon style="fill:black;stroke:black" points="138,164 139,158 136,163 138,164"/>
<text text-anchor="middle" transform="rotate(-90 111 213)" x="111" y="213" style="font-family:Helvetica;font-size:4.49">100</text>
</g>
<g id="n11" class="node">
<polygon style="fill:none;stroke:black" points="79,15 79,49 100,49 100,15 79,15"/>
<text text-anchor="middle" transform="rotate(-90 86 32)" x="86" y="32" style="font-family:Helvetica;font-size:4.49">Proceeding</text>
<text text-anchor="middle" transform="rotate(-90 91 32)" x="91" y="32" style="font-family:Helvetica;font-size:4.49">send(RESP)</text>
<text text-anchor="middle" transform="rotate(-90 96 32)" x="96" y="32" style="font-family:Helvetica;font-size:4.49">save for re-TX</text>
</g>
<g id="n10" class="node">
<polygon style="fill:none;stroke:black" points="110,17 110,47 130,47 130,17 110,17"/>
<text text-anchor="middle" transform="rotate(-90 122 32)" x="122" y="32" style="font-family:Helvetica;font-size:4.49">ign</text>
</g>
<g id="n32" class="node">
<polygon style="fill:none;stroke:black" points="162,131 162,167 183,167 183,131 162,131"/>
<text text-anchor="middle" transform="rotate(-90 174 149)" x="174" y="149" style="font-family:Helvetica;font-size:4.49">delState(THIS)</text>
</g>
<g id="n25" class="node">
<polygon style="fill:none;stroke:black" points="374,131 374,166 395,166 395,131 374,131"/>
<text text-anchor="middle" transform="rotate(-90 384 149)" x="384" y="149" style="font-family:Helvetica;font-size:4.49">G = 2G</text>
<text text-anchor="middle" transform="rotate(-90 389 149)" x="389" y="149" style="font-family:Helvetica;font-size:4.49">startTimer(G)</text>
</g>
<g id="n26" class="node">
<polygon style="fill:none;stroke:black" points="405,134 405,164 425,164 425,134 405,134"/>
<text text-anchor="middle" transform="rotate(-90 417 149)" x="417" y="149" style="font-family:Helvetica;font-size:4.49">ign</text>
</g>
<g id="n23" class="node">
<polygon style="fill:none;stroke:black" points="284,125 284,172 304,172 304,125 284,125"/>
<text text-anchor="middle" transform="rotate(-90 295 149)" x="295" y="149" style="font-family:Helvetica;font-size:4.49">delState(CANCEL)</text>
</g>
<g id="n27" class="node">
<polygon style="fill:none;stroke:black" points="314,131 314,167 334,167 334,131 314,131"/>
<text text-anchor="middle" transform="rotate(-90 326 149)" x="326" y="149" style="font-family:Helvetica;font-size:4.49">delState(THIS)</text>
</g>
<g id="n28" class="node">
<polygon style="fill:none;stroke:black" points="344,131 344,167 364,167 364,131 344,131"/>
<text text-anchor="middle" transform="rotate(-90 356 149)" x="356" y="149" style="font-family:Helvetica;font-size:4.49">delState(THIS)</text>
</g>
<g id="n0" class="node">
</g>
<g id="n0-&gt;n1" class="edge">
<g style="fill:none;stroke:black"><path d="M187 513C184 503 180 486 175 472 171 460 169 457 165 446 159 430 153 413 149 401"/></g>
<polygon style="fill:black;stroke:black" points="151,402 147,397 148,403 151,402"/>
<text text-anchor="middle" transform="rotate(-90 152 430)" x="152" y="430" style="font-family:Helvetica;font-size:4.49">got(resp)</text>
</g>
<g id="n0-&gt;n32" class="edge">
<g style="fill:none;stroke:black"><path d="M189 513C187 463 177 242 173 171"/></g>
<polygon style="fill:black;stroke:black" points="174,172 173,167 171,172 174,172"/>
<text text-anchor="middle" transform="rotate(-90 179 340)" x="179" y="340" style="font-family:Helvetica;font-size:4.49">Transport Error</text>
</g>
<g id="n12" class="node">
</g>
<g id="n0-&gt;n12" class="edge">
<g style="fill:none;stroke:black"><path d="M192 513C197 490 210 431 216 404"/></g>
<polygon style="fill:black;stroke:black" points="217,404 217,398 215,403 217,404"/>
<text text-anchor="middle" transform="rotate(-90 206 430)" x="206" y="430" style="font-family:Helvetica;font-size:4.49">rcv(request)</text>
</g>
<g id="n22" class="node">
</g>
<g id="n0-&gt;n22" class="edge">
<g style="fill:none;stroke:black"><path d="M198 516C222 494 299 425 327 398"/></g>
<polygon style="fill:black;stroke:black" points="328,399 331,395 326,397 328,399"/>
<text text-anchor="middle" transform="rotate(-90 273 430)" x="273" y="430" style="font-family:Helvetica;font-size:4.49">timer exp</text>
</g>
<g id="n4-&gt;n11" class="edge">
<g style="fill:none;stroke:black"><path d="M96 139C95 120 93 80 91 55"/></g>
<polygon style="fill:black;stroke:black" points="93,55 91,50 90,55 93,55"/>
<text text-anchor="middle" transform="rotate(-90 91 92)" x="91" y="92" style="font-family:Helvetica;font-size:4.49">Try|Proc</text>
</g>
<g id="n4-&gt;n10" class="edge">
<g style="fill:none;stroke:black"><path d="M99 139C102 120 111 78 116 52"/></g>
<polygon style="fill:black;stroke:black" points="117,53 117,47 114,52 117,53"/>
<text text-anchor="middle" transform="rotate(-90 104 92)" x="104" y="92" style="font-family:Helvetica;font-size:4.49">*</text>
</g>
<g id="n6" class="node">
<polygon style="fill:none;stroke:black" points="140,7 140,57 160,57 160,7 140,7"/>
<text text-anchor="middle" transform="rotate(-90 152 32)" x="152" y="32" style="font-family:Helvetica;font-size:4.49">snd(PROCEEDING)</text>
</g>
<g id="n5-&gt;n6" class="edge">
<g style="fill:none;stroke:black"><path d="M143 139C144 122 146 88 148 63"/></g>
<polygon style="fill:black;stroke:black" points="149,63 148,57 146,63 149,63"/>
<text text-anchor="middle" transform="rotate(-90 143 92)" x="143" y="92" style="font-family:Helvetica;font-size:4.49">Trying</text>
</g>
<g id="n7" class="node">
<polygon style="fill:none;stroke:black" points="170,17 170,47 190,47 190,17 170,17"/>
<text text-anchor="middle" transform="rotate(-90 182 32)" x="182" y="32" style="font-family:Helvetica;font-size:4.49">ign</text>
</g>
<g id="n5-&gt;n7" class="edge">
<g style="fill:none;stroke:black"><path d="M146 139C150 128 156 108 157 105 159 100 168 71 174 51"/></g>
<polygon style="fill:black;stroke:black" points="175,53 175,47 173,52 175,53"/>
<text text-anchor="middle" transform="rotate(-90 155 92)" x="155" y="92" style="font-family:Helvetica;font-size:4.49">*</text>
</g>
<g id="n13" class="node">
</g>
<g id="n14" class="node">
<polygon style="fill:none;stroke:black" points="193,134 193,164 213,164 213,134 193,134"/>
<text text-anchor="middle" transform="rotate(-90 205 149)" x="205" y="149" style="font-family:Helvetica;font-size:4.49">SEND</text>
</g>
<g id="n13-&gt;n14" class="edge">
<g style="fill:none;stroke:black"><path d="M204 266C203 245 203 195 203 168"/></g>
<polygon style="fill:black;stroke:black" points="204,170 203,164 201,170 204,170"/>
<text text-anchor="middle" transform="rotate(-90 202 213)" x="202" y="213" style="font-family:Helvetica;font-size:4.49">Proc | Completed</text>
</g>
<g id="n15" class="node">
<polygon style="fill:none;stroke:black" points="223,134 223,164 243,164 243,134 223,134"/>
<text text-anchor="middle" transform="rotate(-90 235 149)" x="235" y="149" style="font-family:Helvetica;font-size:4.49">ign</text>
</g>
<g id="n13-&gt;n15" class="edge">
<g style="fill:none;stroke:black"><path d="M206 266C211 245 222 195 229 168"/></g>
<polygon style="fill:black;stroke:black" points="230,170 230,164 227,169 230,170"/>
<text text-anchor="middle" transform="rotate(-90 212 213)" x="212" y="213" style="font-family:Helvetica;font-size:4.49">*</text>
</g>
<g id="n16" class="node">
</g>
<g id="n17" class="node">
</g>
<g id="n16-&gt;n17" class="edge">
<g style="fill:none;stroke:black"><path d="M236 266C242 244 254 190 260 164"/></g>
<polygon style="fill:black;stroke:black" points="261,165 261,159 258,164 261,165"/>
<text text-anchor="middle" transform="rotate(-90 243 213)" x="243" y="213" style="font-family:Helvetica;font-size:4.49">Completed</text>
</g>
<g id="n21" class="node">
<polygon style="fill:none;stroke:black" points="254,255 254,297 275,297 275,255 254,255"/>
<text text-anchor="middle" transform="rotate(-90 266 276)" x="266" y="276" style="font-family:Helvetica;font-size:4.49">proc. srv non-INV</text>
</g>
<g id="n12-&gt;n13" class="edge">
<g style="fill:none;stroke:black"><path d="M218 378C215 358 210 314 206 291"/></g>
<polygon style="fill:black;stroke:black" points="207,292 205,286 205,292 207,292"/>
<text text-anchor="middle" transform="rotate(-90 208 340)" x="208" y="340" style="font-family:Helvetica;font-size:4.49">INV</text>
</g>
<g id="n12-&gt;n16" class="edge">
<g style="fill:none;stroke:black"><path d="M221 378C222 371 224 362 225 359 227 346 230 310 233 290"/></g>
<polygon style="fill:black;stroke:black" points="234,292 233,286 231,292 234,292"/>
<text text-anchor="middle" transform="rotate(-90 222 340)" x="222" y="340" style="font-family:Helvetica;font-size:4.49">ACK</text>
</g>
<g id="n12-&gt;n21" class="edge">
<g style="fill:none;stroke:black"><path d="M227 381C233 374 234 369 239 359 248 341 254 319 258 303"/></g>
<polygon style="fill:black;stroke:black" points="259,303 260,298 257,303 259,303"/>
<text text-anchor="middle" transform="rotate(-90 237 340)" x="237" y="340" style="font-family:Helvetica;font-size:4.49">CANCEL</text>
</g>
<g id="n18" class="node">
<polygon style="fill:none;stroke:black" points="238,17 238,47 258,47 258,17 238,17"/>
<text text-anchor="middle" transform="rotate(-90 250 32)" x="250" y="32" style="font-family:Helvetica;font-size:4.49">del(FSM)</text>
</g>
<g id="n17-&gt;n18" class="edge">
<g style="fill:none;stroke:black"><path d="M262 139C259 119 254 78 251 52"/></g>
<polygon style="fill:black;stroke:black" points="253,53 251,47 250,53 253,53"/>
<text text-anchor="middle" transform="rotate(-90 253 92)" x="253" y="92" style="font-family:Helvetica;font-size:4.49">reliable</text>
</g>
<g id="n19" class="node">
<polygon style="fill:none;stroke:black" points="268,17 268,47 289,47 289,17 268,17"/>
<text text-anchor="middle" transform="rotate(-90 278 32)" x="278" y="32" style="font-family:Helvetica;font-size:3.37">confirmed</text>
<text text-anchor="middle" transform="rotate(-90 281 32)" x="281" y="32" style="font-family:Helvetica;font-size:3.37">timerStart(I)</text>
</g>
<g id="n17-&gt;n19" class="edge">
<g style="fill:none;stroke:black"><path d="M265 139C267 119 273 78 276 52"/></g>
<polygon style="fill:black;stroke:black" points="277,53 276,47 274,53 277,53"/>
<text text-anchor="middle" transform="rotate(-90 267 92)" x="267" y="92" style="font-family:Helvetica;font-size:4.49">unreliable</text>
</g>
<g id="n22-&gt;n23" class="edge">
<g style="fill:none;stroke:black"><path d="M335 378C332 372 330 368 327 359 309 295 300 219 296 178"/></g>
<polygon style="fill:black;stroke:black" points="298,178 296,172 295,178 298,178"/>
<text text-anchor="middle" transform="rotate(-90 303 276)" x="303" y="276" style="font-family:Helvetica;font-size:4.49">J</text>
</g>
<g id="n22-&gt;n27" class="edge">
<g style="fill:none;stroke:black"><path d="M339 378C336 342 328 222 325 171"/></g>
<polygon style="fill:black;stroke:black" points="326,172 325,167 323,172 326,172"/>
<text text-anchor="middle" transform="rotate(-90 327 276)" x="327" y="276" style="font-family:Helvetica;font-size:4.49">H</text>
</g>
<g id="n22-&gt;n28" class="edge">
<g style="fill:none;stroke:black"><path d="M340 378C342 342 350 222 353 171"/></g>
<polygon style="fill:black;stroke:black" points="354,172 353,167 351,172 354,172"/>
<text text-anchor="middle" transform="rotate(-90 342 276)" x="342" y="276" style="font-family:Helvetica;font-size:4.49">I</text>
</g>
<g id="n24" class="node">
</g>
<g id="n22-&gt;n24" class="edge">
<g style="fill:none;stroke:black"><path d="M347 381C355 373 368 361 369 359 381 337 383 309 385 292"/></g>
<polygon style="fill:black;stroke:black" points="386,292 385,286 383,292 386,292"/>
<text text-anchor="middle" transform="rotate(-90 365 340)" x="365" y="340" style="font-family:Helvetica;font-size:4.49">G</text>
</g>
<g id="n29" class="node">
</g>
<g id="n22-&gt;n29" class="edge">
<g style="fill:none;stroke:black"><path d="M349 386C369 378 374 374 390 359 411 337 429 306 439 289"/></g>
<polygon style="fill:black;stroke:black" points="440,291 441,285 437,290 440,291"/>
<text text-anchor="middle" transform="rotate(-90 386 340)" x="386" y="340" style="font-family:Helvetica;font-size:4.49">Try</text>
</g>
<g id="n24-&gt;n25" class="edge">
<g style="fill:none;stroke:black"><path d="M385 266C385 246 385 200 385 172"/></g>
<polygon style="fill:black;stroke:black" points="386,172 385,166 383,172 386,172"/>
<text text-anchor="middle" transform="rotate(-90 382 213)" x="382" y="213" style="font-family:Helvetica;font-size:4.49">completed</text>
</g>
<g id="n24-&gt;n26" class="edge">
<g style="fill:none;stroke:black"><path d="M387 266C392 245 404 195 410 168"/></g>
<polygon style="fill:black;stroke:black" points="411,170 411,164 409,169 411,170"/>
<text text-anchor="middle" transform="rotate(-90 392 213)" x="392" y="213" style="font-family:Helvetica;font-size:4.49">*</text>
</g>
<g id="n30" class="node">
<polygon style="fill:none;stroke:black" points="435,134 435,164 455,164 455,134 435,134"/>
<text text-anchor="middle" transform="rotate(-90 447 149)" x="447" y="149" style="font-family:Helvetica;font-size:4.49">ign</text>
</g>
<g id="n29-&gt;n30" class="edge">
<g style="fill:none;stroke:black"><path d="M445 266C445 245 445 197 445 170"/></g>
<polygon style="fill:black;stroke:black" points="446,170 445,164 443,170 446,170"/>
<text text-anchor="middle" transform="rotate(-90 443 213)" x="443" y="213" style="font-family:Helvetica;font-size:4.49">*</text>
</g>
<g id="n31" class="node">
<polygon style="fill:none;stroke:black" points="465,134 465,164 486,164 486,134 465,134"/>
<text text-anchor="middle" transform="rotate(-90 475 149)" x="475" y="149" style="font-family:Helvetica;font-size:4.49">Proceeding</text>
<text text-anchor="middle" transform="rotate(-90 480 149)" x="480" y="149" style="font-family:Helvetica;font-size:4.49">snd(100)</text>
</g>
<g id="n29-&gt;n31" class="edge">
<g style="fill:none;stroke:black"><path d="M447 266C453 245 464 195 471 168"/></g>
<polygon style="fill:black;stroke:black" points="472,170 472,164 469,169 472,170"/>
<text text-anchor="middle" transform="rotate(-90 453 213)" x="453" y="213" style="font-family:Helvetica;font-size:4.49">Trying?</text>
</g>
<g id="LABEL_NODE" class="node">
<text text-anchor="middle" transform="rotate(-90 159 523)" x="159" y="523" style="font-family:Helvetica;font-size:3.37">Server INVITE FSM</text>
<text text-anchor="middle" transform="rotate(-90 162 523)" x="162" y="523" style="font-family:Helvetica;font-size:3.37">$Id: srv-inv-tree.svg,v 1.2 2003/04/09 20:07:10 alan Exp $ $Name:  $</text>
</g>
</g>
</svg>
