<!-- Generated by dot version 1.7.14 (Mon Oct 21 18:19:04 MDT 2002)
     For user: (alan)    Title: pp_fsm    Pages: 1-->
<svg width="596px" height="726px" xmlns='http://www.w3.org/2000/svg' xmlns:xlink='http://www.w3.org/1999/xlink'>
<g id="pp_fsm" class="graph">
<g id="NewMsg" class="node">
<ellipse cx="26" cy="259" rx="10" ry="25" style="fill:none;stroke:black"/>
<text text-anchor="middle" transform="rotate(-90 29 259)" x="29" y="259" style="font-family:Helvetica;font-size:8.37">NewMsg</text>
</g>
<g id="StartLine" class="node">
<ellipse cx="80" cy="362" rx="10" ry="25" style="fill:none;stroke:black"/>
<text text-anchor="middle" transform="rotate(-90 83 362)" x="83" y="362" style="font-family:Helvetica;font-size:8.37">StartLine</text>
</g>
<g id="NewMsg-&gt;StartLine" class="edge">
<g style="fill:none;stroke:black"><path d="M34 275C44 293 59 322 69 341"/></g>
<polygon style="fill:black;stroke:black" points="68,341 72,345 70,339 68,341"/>
<text text-anchor="middle" transform="rotate(-90 55 293)" x="55" y="293" style="font-family:Helvetica;font-size:4.78">*, Add </text>
</g>
<g id="NewMsgCrLf" class="node">
<ellipse cx="80" cy="216" rx="10" ry="35" style="fill:none;stroke:black"/>
<text text-anchor="middle" transform="rotate(-90 83 216)" x="83" y="216" style="font-family:Helvetica;font-size:8.37">NewMsgCrLf</text>
</g>
<g id="NewMsg-&gt;NewMsgCrLf" class="edge">
<g style="fill:none;stroke:black"><path d="M37 258C43 257 52 255 57 250 61 248 65 244 68 240"/></g>
<polygon style="fill:black;stroke:black" points="69,241 71,236 66,239 69,241"/>
<text text-anchor="middle" transform="rotate(-90 55 240)" x="55" y="240" style="font-family:Helvetica;font-size:4.78">CR, Nil </text>
</g>
<g id="StartLine-&gt;StartLine" class="edge">
<g style="fill:none;stroke:black"><path d="M88 344C89 335 87 326 80 326 75 326 72 331 72 338"/></g>
<polygon style="fill:black;stroke:black" points="71,338 72,344 74,338 71,338"/>
<text text-anchor="middle" transform="rotate(-90 82 317)" x="82" y="317" style="font-family:Helvetica;font-size:4.78">*, Add</text>
</g>
<g id="StartLineCrLf" class="node">
<ellipse cx="135" cy="507" rx="10" ry="35" style="fill:none;stroke:black"/>
<text text-anchor="middle" transform="rotate(-90 138 507)" x="138" y="507" style="font-family:Helvetica;font-size:8.37">StartLineCrLf</text>
</g>
<g id="StartLine-&gt;StartLineCrLf" class="edge">
<g style="fill:none;stroke:black"><path d="M87 381C97 406 113 449 124 478"/></g>
<polygon style="fill:black;stroke:black" points="123,479 126,484 126,478 123,479"/>
<text text-anchor="middle" transform="rotate(-90 109 411)" x="109" y="411" style="font-family:Helvetica;font-size:4.78">CR, Nil</text>
</g>
<g id="NewMsgCrLf-&gt;NewMsg" class="edge">
<g style="fill:none;stroke:black"><path d="M38 239C41 234 45 230 49 227 55 223 63 220 69 219"/></g>
<polygon style="fill:black;stroke:black" points="37,237 35,243 39,239 37,237"/>
<text text-anchor="middle" transform="rotate(-90 55 209)" x="55" y="209" style="font-family:Helvetica;font-size:4.78">LF, Discard </text>
</g>
<g id="EndMsg" class="node">
<ellipse cx="569" cy="293" rx="10" ry="23" style="fill:none;stroke:black"/>
<text text-anchor="middle" transform="rotate(-90 572 293)" x="572" y="293" style="font-family:Helvetica;font-size:8.37">EndMsg</text>
</g>
<g id="NewMsgCrLf-&gt;EndMsg" class="edge">
<g style="fill:none;stroke:black"><path d="M88 191C103 142 134 38 135 38 135 38 135 38 515 38 565 38 556 205 565 253 567 258 567 259 568 264"/></g>
<polygon style="fill:black;stroke:black" points="566,263 568,269 569,263 566,263"/>
<text text-anchor="middle" transform="rotate(-90 326 20)" x="326" y="20" style="font-family:Helvetica;font-size:4.78">*, Bad|Discard </text>
</g>
<g id="StartLineCrLf-&gt;EndMsg" class="edge">
<g style="fill:none;stroke:black"><path d="M141 535C155 591 185 712 189 712 189 712 189 712 515 712 561 712 549 665 562 622 568 602 567 596 568 576 568 573 569 392 569 321"/></g>
<polygon style="fill:black;stroke:black" points="570,323 569,317 567,323 570,323"/>
<text text-anchor="middle" transform="rotate(-90 354 694)" x="354" y="694" style="font-family:Helvetica;font-size:4.78">*, Bad |Discard</text>
</g>
<g id="BuildHdr" class="node">
<ellipse cx="189" cy="507" rx="10" ry="25" style="fill:none;stroke:black"/>
<text text-anchor="middle" transform="rotate(-90 192 507)" x="192" y="507" style="font-family:Helvetica;font-size:8.37">BuildHdr</text>
</g>
<g id="StartLineCrLf-&gt;BuildHdr" class="edge">
<g style="fill:none;stroke:black"><path d="M145 507C153 507 164 507 173 507"/></g>
<polygon style="fill:black;stroke:black" points="172,508 178,507 172,505 172,508"/>
<text text-anchor="middle" transform="rotate(-90 164 479)" x="164" y="479" style="font-family:Helvetica;font-size:4.78">LF, Reset | Fline |Discard</text>
</g>
<g id="BuildHdr-&gt;BuildHdr" class="edge">
<g style="fill:none;stroke:black"><path d="M197 489C198 479 196 470 189 470 184 470 181 476 181 482"/></g>
<polygon style="fill:black;stroke:black" points="179,483 181,489 182,483 179,483"/>
<text text-anchor="middle" transform="rotate(-90 191 461)" x="191" y="461" style="font-family:Helvetica;font-size:4.78">*, Add</text>
</g>
<g id="EWSPostHdr" class="node">
<ellipse cx="243" cy="573" rx="10" ry="34" style="fill:none;stroke:black"/>
<text text-anchor="middle" transform="rotate(-90 246 573)" x="246" y="573" style="font-family:Helvetica;font-size:8.37">EWSPostHdr</text>
</g>
<g id="BuildHdr-&gt;EWSPostHdr" class="edge">
<g style="fill:none;stroke:black"><path d="M199 519C207 529 220 544 230 556"/></g>
<polygon style="fill:black;stroke:black" points="228,557 233,561 230,555 228,557"/>
<text text-anchor="middle" transform="rotate(-90 218 522)" x="218" y="522" style="font-family:Helvetica;font-size:4.78">LWS, Nil</text>
</g>
<g id="EWSPostColon" class="node">
<ellipse cx="298" cy="471" rx="10" ry="37" style="fill:none;stroke:black"/>
<text text-anchor="middle" transform="rotate(-90 301 471)" x="301" y="471" style="font-family:Helvetica;font-size:8.37">EWSPostColon</text>
</g>
<g id="BuildHdr-&gt;EWSPostColon" class="edge">
<g style="fill:none;stroke:black"><path d="M200 503C221 495 265 478 267 477 271 476 277 475 282 474"/></g>
<polygon style="fill:black;stroke:black" points="282,476 287,473 281,473 282,476"/>
<text text-anchor="middle" transform="rotate(-90 245 440)" x="245" y="440" style="font-family:Helvetica;font-size:4.78">COLON, Hdr|Reset|DiscardKnown</text>
</g>
<g id="EWSPostHdr-&gt;EndMsg" class="edge">
<g style="fill:none;stroke:black"><path d="M253 585C274 609 325 660 379 660 379 660 379 660 515 660 568 660 537 598 546 546 561 465 567 368 568 321"/></g>
<polygon style="fill:black;stroke:black" points="570,323 568,317 567,323 570,323"/>
<text text-anchor="middle" transform="rotate(-90 408 642)" x="408" y="642" style="font-family:Helvetica;font-size:4.78">*, Bad |Discard</text>
</g>
<g id="EWSPostHdr-&gt;EWSPostHdr" class="edge">
<g style="fill:none;stroke:black"><path d="M251 549C252 538 249 528 243 528 238 528 236 535 236 544"/></g>
<polygon style="fill:black;stroke:black" points="234,543 236,549 237,543 234,543"/>
<text text-anchor="middle" transform="rotate(-90 245 515)" x="245" y="515" style="font-family:Helvetica;font-size:4.78">LWS, Nil</text>
</g>
<g id="EWSPostHdr-&gt;EWSPostColon" class="edge">
<g style="fill:none;stroke:black"><path d="M254 570C263 568 274 565 275 564 277 562 285 532 290 507"/></g>
<polygon style="fill:black;stroke:black" points="291,507 291,501 288,507 291,507"/>
<text text-anchor="middle" transform="rotate(-90 273 522)" x="273" y="522" style="font-family:Helvetica;font-size:4.78">COLON, Hdr|Reset|DiscardKnown</text>
</g>
<g id="EWSPostColon-&gt;EWSPostColon" class="edge">
<g style="fill:none;stroke:black"><path d="M305 445C307 433 304 423 298 423 292 423 289 430 290 440"/></g>
<polygon style="fill:black;stroke:black" points="288,439 290,445 291,439 288,439"/>
<text text-anchor="middle" transform="rotate(-90 299 389)" x="299" y="389" style="font-family:Helvetica;font-size:4.78">LWS, Reset|DiscardKnown</text>
</g>
<g id="BuildData" class="node">
<ellipse cx="352" cy="305" rx="10" ry="27" style="fill:none;stroke:black"/>
<text text-anchor="middle" transform="rotate(-90 355 305)" x="355" y="305" style="font-family:Helvetica;font-size:8.37">BuildData</text>
</g>
<g id="EWSPostColon-&gt;BuildData" class="edge">
<g style="fill:none;stroke:black"><path d="M302 436C308 385 320 295 320 294 323 292 331 294 337 297"/></g>
<polygon style="fill:black;stroke:black" points="335,298 341,299 337,295 335,298"/>
<text text-anchor="middle" transform="rotate(-90 326 285)" x="326" y="285" style="font-family:Helvetica;font-size:4.78">*, Add</text>
</g>
<g id="EmptyHdrCrLf" class="node">
<ellipse cx="352" cy="604" rx="10" ry="39" style="fill:none;stroke:black"/>
<text text-anchor="middle" transform="rotate(-90 355 604)" x="355" y="604" style="font-family:Helvetica;font-size:8.37">EmptyHdrCrLf</text>
</g>
<g id="EWSPostColon-&gt;EmptyHdrCrLf" class="edge">
<g style="fill:none;stroke:black"><path d="M302 504C307 531 313 565 320 577 325 584 331 590 337 595"/></g>
<polygon style="fill:black;stroke:black" points="335,595 341,598 337,593 335,595"/>
<text text-anchor="middle" transform="rotate(-90 326 562)" x="326" y="562" style="font-family:Helvetica;font-size:4.78">CR, Reset</text>
</g>
<g id="InAng" class="node">
<ellipse cx="406" cy="515" rx="10" ry="19" style="fill:none;stroke:black"/>
<text text-anchor="middle" transform="rotate(-90 409 515)" x="409" y="515" style="font-family:Helvetica;font-size:8.37">InAng</text>
</g>
<g id="EWSPostColon-&gt;InAng" class="edge">
<g style="fill:none;stroke:black"><path d="M307 487C319 505 337 532 341 534 358 543 378 534 392 526"/></g>
<polygon style="fill:black;stroke:black" points="392,528 396,523 390,525 392,528"/>
<text text-anchor="middle" transform="rotate(-90 354 497)" x="354" y="497" style="font-family:Helvetica;font-size:4.78">LAQUOT, Add  (dCommaSep)</text>
</g>
<g id="InQ" class="node">
<ellipse cx="406" cy="334" rx="10" ry="16" style="fill:none;stroke:black"/>
<text text-anchor="middle" transform="rotate(-90 409 334)" x="409" y="334" style="font-family:Helvetica;font-size:8.37">InQ</text>
</g>
<g id="EWSPostColon-&gt;InQ" class="edge">
<g style="fill:none;stroke:black"><path d="M308 467C330 460 378 443 383 437 386 434 397 383 403 354"/></g>
<polygon style="fill:black;stroke:black" points="404,356 403,350 401,356 404,356"/>
<text text-anchor="middle" transform="rotate(-90 354 416)" x="354" y="416" style="font-family:Helvetica;font-size:4.78">QUOT, Add  (dCommaSep)</text>
</g>
<g id="BuildData-&gt;EWSPostColon" class="edge">
<g style="fill:none;stroke:black"><path d="M311 453C317 443 324 432 329 420 340 391 346 355 349 332"/></g>
<polygon style="fill:black;stroke:black" points="310,451 308,457 313,453 310,451"/>
<text text-anchor="middle" transform="rotate(-90 326 358)" x="326" y="358" style="font-family:Helvetica;font-size:4.78">COMMA,  Data|Reset|DiscardKnown (dCommaSep)</text>
</g>
<g id="BuildData-&gt;BuildData" class="edge">
<g style="fill:none;stroke:black"><path d="M360 286C361 276 359 267 352 267 347 267 344 273 344 281"/></g>
<polygon style="fill:black;stroke:black" points="343,280 344,286 345,280 343,280"/>
<text text-anchor="middle" transform="rotate(-90 354 258)" x="354" y="258" style="font-family:Helvetica;font-size:4.78">*, Add</text>
</g>
<g id="BuildData-&gt;InAng" class="edge">
<g style="fill:none;stroke:black"><path d="M356 331C362 359 366 371 375 405 379 422 392 465 399 492"/></g>
<polygon style="fill:black;stroke:black" points="397,492 401,498 400,492 397,492"/>
<text text-anchor="middle" transform="rotate(-90 381 363)" x="381" y="363" style="font-family:Helvetica;font-size:4.78">LAQUOT, Add (dCommaSep)</text>
</g>
<g id="BuildData-&gt;InQ" class="edge">
<g style="fill:none;stroke:black"><path d="M362 315C368 320 373 325 375 326 377 327 384 329 391 331"/></g>
<polygon style="fill:black;stroke:black" points="390,332 396,332 390,329 390,332"/>
<text text-anchor="middle" transform="rotate(-90 381 293)" x="381" y="293" style="font-family:Helvetica;font-size:4.78">QUOT, Add (dCommaSep)</text>
</g>
<g id="BuildDataCrLf" class="node">
<ellipse cx="406" cy="227" rx="10" ry="38" style="fill:none;stroke:black"/>
<text text-anchor="middle" transform="rotate(-90 409 227)" x="409" y="227" style="font-family:Helvetica;font-size:8.37">BuildDataCrLf</text>
</g>
<g id="BuildData-&gt;BuildDataCrLf" class="edge">
<g style="fill:none;stroke:black"><path d="M354 278C359 253 353 237 375 222 379 219 385 219 390 220"/></g>
<polygon style="fill:black;stroke:black" points="390,221 396,221 390,218 390,221"/>
<text text-anchor="middle" transform="rotate(-90 381 209)" x="381" y="209" style="font-family:Helvetica;font-size:4.78">CR, Nil</text>
</g>
<g id="EmptyHdrCrLf-&gt;EndMsg" class="edge">
<g style="fill:none;stroke:black"><path d="M363 598C374 592 391 585 406 584 406 584 406 584 515 584 542 585 561 394 567 321"/></g>
<polygon style="fill:black;stroke:black" points="568,323 567,317 565,323 568,323"/>
<text text-anchor="middle" transform="rotate(-90 463 567)" x="463" y="567" style="font-family:Helvetica;font-size:4.78">*, Bad|Discard</text>
</g>
<g id="EmptyHdrCrLf-&gt;BuildHdr" class="edge">
<g style="fill:none;stroke:black"><path d="M193 535C199 575 218 646 267 676 297 694 328 650 343 623"/></g>
<polygon style="fill:black;stroke:black" points="194,537 192,531 191,537 194,537"/>
<text text-anchor="middle" transform="rotate(-90 273 653)" x="273" y="653" style="font-family:Helvetica;font-size:4.78">LF, Reset|Discard</text>
</g>
<g id="InAng-&gt;BuildData" class="edge">
<g style="fill:none;stroke:black"><path d="M354 337C357 354 360 360 363 379 370 423 357 437 375 478 380 489 389 500 396 507"/></g>
<polygon style="fill:black;stroke:black" points="356,338 353,332 353,338 356,338"/>
<text text-anchor="middle" transform="rotate(-90 381 454)" x="381" y="454" style="font-family:Helvetica;font-size:4.78">RAQUOT, Add</text>
</g>
<g id="InAng-&gt;InAng" class="edge">
<g style="fill:none;stroke:black"><path d="M414 501C415 492 413 485 406 485 402 485 399 489 399 495"/></g>
<polygon style="fill:black;stroke:black" points="397,495 399,501 400,495 397,495"/>
<text text-anchor="middle" transform="rotate(-90 408 476)" x="408" y="476" style="font-family:Helvetica;font-size:4.78">*, Add</text>
</g>
<g id="InAngQ" class="node">
<ellipse cx="461" cy="494" rx="10" ry="23" style="fill:none;stroke:black"/>
<text text-anchor="middle" transform="rotate(-90 464 494)" x="464" y="494" style="font-family:Helvetica;font-size:8.37">InAngQ</text>
</g>
<g id="InAng-&gt;InAngQ" class="edge">
<g style="fill:none;stroke:black"><path d="M417 519C423 521 431 521 438 518 442 516 445 514 448 512"/></g>
<polygon style="fill:black;stroke:black" points="449,513 452,507 446,510 449,513"/>
<text text-anchor="middle" transform="rotate(-90 435 502)" x="435" y="502" style="font-family:Helvetica;font-size:4.78">QUOT, Add</text>
</g>
<g id="InQ-&gt;BuildData" class="edge">
<g style="fill:none;stroke:black"><path d="M362 281C368 270 372 259 375 258 378 256 380 256 383 258 384 259 396 298 402 319"/></g>
<polygon style="fill:black;stroke:black" points="361,280 360,286 364,281 361,280"/>
<text text-anchor="middle" transform="rotate(-90 381 240)" x="381" y="240" style="font-family:Helvetica;font-size:4.78">QUOT, Add</text>
</g>
<g id="InQ-&gt;InQ" class="edge">
<g style="fill:none;stroke:black"><path d="M414 322C416 314 414 307 406 307 401 307 399 311 399 316"/></g>
<polygon style="fill:black;stroke:black" points="397,316 399,322 400,316 397,316"/>
<text text-anchor="middle" transform="rotate(-90 408 298)" x="408" y="298" style="font-family:Helvetica;font-size:4.78">*, Add</text>
</g>
<g id="InQEsc" class="node">
<ellipse cx="461" cy="360" rx="10" ry="21" style="fill:none;stroke:black"/>
<text text-anchor="middle" transform="rotate(-90 464 360)" x="464" y="360" style="font-family:Helvetica;font-size:8.37">InQEsc</text>
</g>
<g id="InQ-&gt;InQEsc" class="edge">
<g style="fill:none;stroke:black"><path d="M409 350C413 360 418 374 429 380 433 383 435 382 438 380 441 379 444 377 447 375"/></g>
<polygon style="fill:black;stroke:black" points="448,376 451,371 446,374 448,376"/>
<text text-anchor="middle" transform="rotate(-90 435 361)" x="435" y="361" style="font-family:Helvetica;font-size:4.78">LSLASH, Add</text>
</g>
<g id="BuildDataCrLf-&gt;EndMsg" class="edge">
<g style="fill:none;stroke:black"><path d="M417 231C446 242 522 274 554 287"/></g>
<polygon style="fill:black;stroke:black" points="552,288 558,289 553,285 552,288"/>
<text text-anchor="middle" transform="rotate(-90 489 240)" x="489" y="240" style="font-family:Helvetica;font-size:4.78">*, Bad |Discard</text>
</g>
<g id="CheckCont" class="node">
<ellipse cx="461" cy="198" rx="10" ry="29" style="fill:none;stroke:black"/>
<text text-anchor="middle" transform="rotate(-90 464 198)" x="464" y="198" style="font-family:Helvetica;font-size:8.37">CheckCont</text>
</g>
<g id="BuildDataCrLf-&gt;CheckCont" class="edge">
<g style="fill:none;stroke:black"><path d="M417 221C425 217 436 211 445 206"/></g>
<polygon style="fill:black;stroke:black" points="446,207 450,203 444,205 446,207"/>
<text text-anchor="middle" transform="rotate(-90 435 201)" x="435" y="201" style="font-family:Helvetica;font-size:4.78">LF, Nil</text>
</g>
<g id="CheckCont-&gt;BuildHdr" class="edge">
<g style="fill:none;stroke:black"><path d="M190 476C194 384 207 123 243 122 243 122 243 122 406 122 440 123 443 148 453 177"/></g>
<polygon style="fill:black;stroke:black" points="188,475 190,481 191,475 188,475"/>
<text text-anchor="middle" transform="rotate(-90 326 90)" x="326" y="90" style="font-family:Helvetica;font-size:4.78">*, Data|Reset|Back |Discard</text>
</g>
<g id="CheckCont-&gt;BuildData" class="edge">
<g style="fill:none;stroke:black"><path d="M353 272C357 238 354 225 375 197 387 181 398 180 417 183 429 185 442 190 450 193"/></g>
<polygon style="fill:black;stroke:black" points="351,271 353,277 354,271 351,271"/>
<text text-anchor="middle" transform="rotate(-90 408 168)" x="408" y="168" style="font-family:Helvetica;font-size:4.78">LWS, Add </text>
</g>
<g id="CheckEndHdr" class="node">
<ellipse cx="515" cy="209" rx="10" ry="36" style="fill:none;stroke:black"/>
<text text-anchor="middle" transform="rotate(-90 518 209)" x="518" y="209" style="font-family:Helvetica;font-size:8.37">CheckEndHdr</text>
</g>
<g id="CheckCont-&gt;CheckEndHdr" class="edge">
<g style="fill:none;stroke:black"><path d="M472 200C479 201 490 204 499 206"/></g>
<polygon style="fill:black;stroke:black" points="498,207 504,207 499,204 498,207"/>
<text text-anchor="middle" transform="rotate(-90 489 175)" x="489" y="175" style="font-family:Helvetica;font-size:4.78">CR, Data|Reset |Discard</text>
</g>
<g id="CheckEndHdr-&gt;EndMsg" class="edge">
<g style="fill:none;stroke:black"><path d="M524 230C528 239 533 249 538 257 543 265 550 273 555 279"/></g>
<polygon style="fill:black;stroke:black" points="553,280 559,283 556,277 553,280"/>
<text text-anchor="middle" transform="rotate(-90 544 237)" x="544" y="237" style="font-family:Helvetica;font-size:4.78">*, Bad |Discard</text>
</g>
<g id="CheckEndHdr-&gt;EndMsg" class="edge">
<g style="fill:none;stroke:black"><path d="M526 212C534 213 543 216 546 219 563 236 562 247 565 265"/></g>
<polygon style="fill:black;stroke:black" points="564,264 566,270 567,264 564,264"/>
<text text-anchor="middle" transform="rotate(-90 544 190)" x="544" y="190" style="font-family:Helvetica;font-size:4.78">LF, EndHdrs |Discard</text>
</g>
<g id="InAngQ-&gt;InAng" class="edge">
<g style="fill:none;stroke:black"><path d="M417 495C420 491 424 486 429 483 436 480 444 483 451 486"/></g>
<polygon style="fill:black;stroke:black" points="415,494 414,500 418,496 415,494"/>
<text text-anchor="middle" transform="rotate(-90 435 467)" x="435" y="467" style="font-family:Helvetica;font-size:4.78">QUOT, Add</text>
</g>
<g id="InAngQ-&gt;InAngQ" class="edge">
<g style="fill:none;stroke:black"><path d="M469 477C470 468 467 460 461 460 456 460 453 464 453 470"/></g>
<polygon style="fill:black;stroke:black" points="451,471 453,477 454,471 451,471"/>
<text text-anchor="middle" transform="rotate(-90 463 451)" x="463" y="451" style="font-family:Helvetica;font-size:4.78">*, Add</text>
</g>
<g id="InAngQEsc" class="node">
<ellipse cx="515" cy="493" rx="10" ry="30" style="fill:none;stroke:black"/>
<text text-anchor="middle" transform="rotate(-90 518 493)" x="518" y="493" style="font-family:Helvetica;font-size:8.37">InAngQEsc</text>
</g>
<g id="InAngQ-&gt;InAngQEsc" class="edge">
<g style="fill:none;stroke:black"><path d="M470 504C475 509 481 513 484 515 487 516 489 516 492 515 493 514 497 511 501 507"/></g>
<polygon style="fill:black;stroke:black" points="502,509 505,503 500,506 502,509"/>
<text text-anchor="middle" transform="rotate(-90 489 495)" x="489" y="495" style="font-family:Helvetica;font-size:4.78">LSLASH, Add</text>
</g>
<g id="InAngQEsc-&gt;InAngQ" class="edge">
<g style="fill:none;stroke:black"><path d="M473 481C477 478 480 476 484 475 491 472 499 476 505 482"/></g>
<polygon style="fill:black;stroke:black" points="474,478 470,483 476,481 474,478"/>
<text text-anchor="middle" transform="rotate(-90 489 466)" x="489" y="466" style="font-family:Helvetica;font-size:4.78">*, Add</text>
</g>
<g id="InQEsc-&gt;InQ" class="edge">
<g style="fill:none;stroke:black"><path d="M421 335C426 336 432 338 438 340 439 341 445 346 451 351"/></g>
<polygon style="fill:black;stroke:black" points="423,334 417,335 423,337 423,334"/>
<text text-anchor="middle" transform="rotate(-90 435 329)" x="435" y="329" style="font-family:Helvetica;font-size:4.78">*, Add</text>
</g>
</g>
</svg>
