<!-- Generated by dot version 1.7.14 (Mon Oct 21 18:19:04 MDT 2002)
     For user: (alan)    Title: pp_fsm    Pages: 1-->
<svg width="596px" height="726px" xmlns='http://www.w3.org/2000/svg' xmlns:xlink='http://www.w3.org/1999/xlink'>
<g id="pp_fsm" class="graph">
<g id="NewMsg" class="node">
<ellipse cx="26" cy="262" rx="10" ry="25" style="fill:none;stroke:black"/>
<text text-anchor="middle" transform="rotate(-90 29 262)" x="29" y="262" style="font-family:Helvetica;font-size:8.37">NewMsg</text>
</g>
<g id="StartLine" class="node">
<ellipse cx="80" cy="366" rx="10" ry="25" style="fill:none;stroke:black"/>
<text text-anchor="middle" transform="rotate(-90 83 366)" x="83" y="366" style="font-family:Helvetica;font-size:8.37">StartLine</text>
</g>
<g id="NewMsg-&gt;StartLine" class="edge">
<g style="fill:none;stroke:black"><path d="M34 279C44 297 59 326 69 345"/></g>
<polygon style="fill:black;stroke:black" points="68,345 72,350 70,344 68,345"/>
<text text-anchor="middle" transform="rotate(-90 55 297)" x="55" y="297" style="font-family:Helvetica;font-size:4.78">*, Add </text>
</g>
<g id="NewMsgCrLf" class="node">
<ellipse cx="80" cy="220" rx="10" ry="35" style="fill:none;stroke:black"/>
<text text-anchor="middle" transform="rotate(-90 83 220)" x="83" y="220" style="font-family:Helvetica;font-size:8.37">NewMsgCrLf</text>
</g>
<g id="NewMsg-&gt;NewMsgCrLf" class="edge">
<g style="fill:none;stroke:black"><path d="M37 262C43 261 52 259 57 254 61 252 65 247 68 244"/></g>
<polygon style="fill:black;stroke:black" points="69,244 71,239 66,243 69,244"/>
<text text-anchor="middle" transform="rotate(-90 55 243)" x="55" y="243" style="font-family:Helvetica;font-size:4.78">CR, Nil </text>
</g>
<g id="StartLine-&gt;StartLine" class="edge">
<g style="fill:none;stroke:black"><path d="M88 348C89 339 87 330 80 330 75 330 72 335 72 342"/></g>
<polygon style="fill:black;stroke:black" points="71,342 72,348 74,342 71,342"/>
<text text-anchor="middle" transform="rotate(-90 82 321)" x="82" y="321" style="font-family:Helvetica;font-size:4.78">*, Add</text>
</g>
<g id="StartLineCrLf" class="node">
<ellipse cx="135" cy="513" rx="10" ry="35" style="fill:none;stroke:black"/>
<text text-anchor="middle" transform="rotate(-90 138 513)" x="138" y="513" style="font-family:Helvetica;font-size:8.37">StartLineCrLf</text>
</g>
<g id="StartLine-&gt;StartLineCrLf" class="edge">
<g style="fill:none;stroke:black"><path d="M87 385C96 411 114 457 125 486"/></g>
<polygon style="fill:black;stroke:black" points="123,485 126,491 126,485 123,485"/>
<text text-anchor="middle" transform="rotate(-90 109 416)" x="109" y="416" style="font-family:Helvetica;font-size:4.78">CR, Nil</text>
</g>
<g id="NewMsgCrLf-&gt;NewMsg" class="edge">
<g style="fill:none;stroke:black"><path d="M38 242C41 238 45 234 49 231 55 227 63 224 69 222"/></g>
<polygon style="fill:black;stroke:black" points="37,241 35,247 39,243 37,241"/>
<text text-anchor="middle" transform="rotate(-90 55 212)" x="55" y="212" style="font-family:Helvetica;font-size:4.78">LF, Discard </text>
</g>
<g id="EndMsg" class="node">
<ellipse cx="569" cy="293" rx="10" ry="23" style="fill:none;stroke:black"/>
<text text-anchor="middle" transform="rotate(-90 572 293)" x="572" y="293" style="font-family:Helvetica;font-size:8.37">EndMsg</text>
</g>
<g id="NewMsgCrLf-&gt;EndMsg" class="edge">
<g style="fill:none;stroke:black"><path d="M86 190C97 138 119 38 135 38 135 38 135 38 515 38 565 38 556 205 565 253 567 258 567 259 568 264"/></g>
<polygon style="fill:black;stroke:black" points="566,263 568,269 569,263 566,263"/>
<text text-anchor="middle" transform="rotate(-90 326 20)" x="326" y="20" style="font-family:Helvetica;font-size:4.78">*, Bad|Discard </text>
</g>
<g id="StartLineCrLf-&gt;EndMsg" class="edge">
<g style="fill:none;stroke:black"><path d="M137 549C142 605 155 712 189 712 189 712 189 712 515 712 561 712 549 665 562 622 568 602 567 596 568 576 568 573 569 392 569 321"/></g>
<polygon style="fill:black;stroke:black" points="570,323 569,317 567,323 570,323"/>
<text text-anchor="middle" transform="rotate(-90 354 694)" x="354" y="694" style="font-family:Helvetica;font-size:4.78">*, Bad |Discard</text>
</g>
<g id="BuildHdr" class="node">
<ellipse cx="189" cy="513" rx="10" ry="25" style="fill:none;stroke:black"/>
<text text-anchor="middle" transform="rotate(-90 192 513)" x="192" y="513" style="font-family:Helvetica;font-size:8.37">BuildHdr</text>
</g>
<g id="StartLineCrLf-&gt;BuildHdr" class="edge">
<g style="fill:none;stroke:black"><path d="M145 513C153 513 164 513 173 513"/></g>
<polygon style="fill:black;stroke:black" points="172,515 178,513 172,512 172,515"/>
<text text-anchor="middle" transform="rotate(-90 164 486)" x="164" y="486" style="font-family:Helvetica;font-size:4.78">LF, Reset | Fline |Discard</text>
</g>
<g id="BuildHdr-&gt;BuildHdr" class="edge">
<g style="fill:none;stroke:black"><path d="M197 495C198 486 196 477 189 477 184 477 181 482 181 489"/></g>
<polygon style="fill:black;stroke:black" points="179,489 181,495 182,489 179,489"/>
<text text-anchor="middle" transform="rotate(-90 191 468)" x="191" y="468" style="font-family:Helvetica;font-size:4.78">*, Add</text>
</g>
<g id="EWSPostHdr" class="node">
<ellipse cx="243" cy="579" rx="10" ry="34" style="fill:none;stroke:black"/>
<text text-anchor="middle" transform="rotate(-90 246 579)" x="246" y="579" style="font-family:Helvetica;font-size:8.37">EWSPostHdr</text>
</g>
<g id="BuildHdr-&gt;EWSPostHdr" class="edge">
<g style="fill:none;stroke:black"><path d="M199 525C207 535 220 551 230 563"/></g>
<polygon style="fill:black;stroke:black" points="228,564 233,567 230,562 228,564"/>
<text text-anchor="middle" transform="rotate(-90 218 528)" x="218" y="528" style="font-family:Helvetica;font-size:4.78">LWS, Nil</text>
</g>
<g id="EWSPostColon" class="node">
<ellipse cx="298" cy="478" rx="10" ry="37" style="fill:none;stroke:black"/>
<text text-anchor="middle" transform="rotate(-90 301 478)" x="301" y="478" style="font-family:Helvetica;font-size:8.37">EWSPostColon</text>
</g>
<g id="BuildHdr-&gt;EWSPostColon" class="edge">
<g style="fill:none;stroke:black"><path d="M200 509C221 501 265 485 267 483 271 482 277 481 282 481"/></g>
<polygon style="fill:black;stroke:black" points="282,482 287,479 281,479 282,482"/>
<text text-anchor="middle" transform="rotate(-90 245 447)" x="245" y="447" style="font-family:Helvetica;font-size:4.78">COLON, Hdr|Reset|DiscardKnown</text>
</g>
<g id="EWSPostHdr-&gt;EndMsg" class="edge">
<g style="fill:none;stroke:black"><path d="M254 587C276 604 323 639 341 648 357 656 362 660 379 660 379 660 379 660 515 660 568 660 537 598 546 546 561 465 567 368 568 321"/></g>
<polygon style="fill:black;stroke:black" points="570,323 568,317 567,323 570,323"/>
<text text-anchor="middle" transform="rotate(-90 408 642)" x="408" y="642" style="font-family:Helvetica;font-size:4.78">*, Bad |Discard</text>
</g>
<g id="EWSPostHdr-&gt;EWSPostHdr" class="edge">
<g style="fill:none;stroke:black"><path d="M251 556C252 544 249 534 243 534 238 534 236 542 236 551"/></g>
<polygon style="fill:black;stroke:black" points="234,550 236,556 237,550 234,550"/>
<text text-anchor="middle" transform="rotate(-90 245 522)" x="245" y="522" style="font-family:Helvetica;font-size:4.78">LWS, Nil</text>
</g>
<g id="EWSPostHdr-&gt;EWSPostColon" class="edge">
<g style="fill:none;stroke:black"><path d="M254 577C263 575 274 572 275 571 277 568 285 538 290 513"/></g>
<polygon style="fill:black;stroke:black" points="291,514 291,508 288,513 291,514"/>
<text text-anchor="middle" transform="rotate(-90 273 528)" x="273" y="528" style="font-family:Helvetica;font-size:4.78">COLON, Hdr|Reset|DiscardKnown</text>
</g>
<g id="EWSPostColon-&gt;EWSPostColon" class="edge">
<g style="fill:none;stroke:black"><path d="M305 452C307 440 304 429 298 429 292 429 289 437 290 447"/></g>
<polygon style="fill:black;stroke:black" points="288,446 290,452 291,446 288,446"/>
<text text-anchor="middle" transform="rotate(-90 299 396)" x="299" y="396" style="font-family:Helvetica;font-size:4.78">LWS, Reset|DiscardKnown</text>
</g>
<g id="BuildData" class="node">
<ellipse cx="352" cy="304" rx="10" ry="27" style="fill:none;stroke:black"/>
<text text-anchor="middle" transform="rotate(-90 355 304)" x="355" y="304" style="font-family:Helvetica;font-size:8.37">BuildData</text>
</g>
<g id="EWSPostColon-&gt;BuildData" class="edge">
<g style="fill:none;stroke:black"><path d="M299 440C303 390 310 304 320 294 323 292 331 294 337 297"/></g>
<polygon style="fill:black;stroke:black" points="335,298 341,299 337,295 335,298"/>
<text text-anchor="middle" transform="rotate(-90 326 285)" x="326" y="285" style="font-family:Helvetica;font-size:4.78">*, Add</text>
</g>
<g id="EmptyHdrCrLf" class="node">
<ellipse cx="352" cy="604" rx="10" ry="39" style="fill:none;stroke:black"/>
<text text-anchor="middle" transform="rotate(-90 355 604)" x="355" y="604" style="font-family:Helvetica;font-size:8.37">EmptyHdrCrLf</text>
</g>
<g id="EWSPostColon-&gt;EmptyHdrCrLf" class="edge">
<g style="fill:none;stroke:black"><path d="M303 510C307 535 314 567 320 577 323 581 331 587 338 593"/></g>
<polygon style="fill:black;stroke:black" points="335,594 341,596 337,591 335,594"/>
<text text-anchor="middle" transform="rotate(-90 326 562)" x="326" y="562" style="font-family:Helvetica;font-size:4.78">CR, Reset</text>
</g>
<g id="InAng" class="node">
<ellipse cx="406" cy="515" rx="10" ry="19" style="fill:none;stroke:black"/>
<text text-anchor="middle" transform="rotate(-90 409 515)" x="409" y="515" style="font-family:Helvetica;font-size:8.37">InAng</text>
</g>
<g id="EWSPostColon-&gt;InAng" class="edge">
<g style="fill:none;stroke:black"><path d="M307 497C314 510 326 527 341 534 358 543 378 534 392 525"/></g>
<polygon style="fill:black;stroke:black" points="392,527 396,523 390,525 392,527"/>
<text text-anchor="middle" transform="rotate(-90 354 497)" x="354" y="497" style="font-family:Helvetica;font-size:4.78">LAQUOT, Add  (dCommaSep)</text>
</g>
<g id="InQ" class="node">
<ellipse cx="406" cy="334" rx="10" ry="16" style="fill:none;stroke:black"/>
<text text-anchor="middle" transform="rotate(-90 409 334)" x="409" y="334" style="font-family:Helvetica;font-size:8.37">InQ</text>
</g>
<g id="EWSPostColon-&gt;InQ" class="edge">
<g style="fill:none;stroke:black"><path d="M308 473C317 469 330 463 341 458 360 451 371 458 383 442 394 430 401 384 404 356"/></g>
<polygon style="fill:black;stroke:black" points="405,356 405,350 403,356 405,356"/>
<text text-anchor="middle" transform="rotate(-90 354 421)" x="354" y="421" style="font-family:Helvetica;font-size:4.78">QUOT, Add  (dCommaSep)</text>
</g>
<g id="BuildData-&gt;EWSPostColon" class="edge">
<g style="fill:none;stroke:black"><path d="M310 457C317 444 326 427 329 420 340 390 345 354 349 331"/></g>
<polygon style="fill:black;stroke:black" points="309,455 307,461 312,457 309,455"/>
<text text-anchor="middle" transform="rotate(-90 326 358)" x="326" y="358" style="font-family:Helvetica;font-size:4.78">COMMA,  Data|Reset|DiscardKnown (dCommaSep)</text>
</g>
<g id="BuildData-&gt;BuildData" class="edge">
<g style="fill:none;stroke:black"><path d="M360 285C361 275 359 266 352 266 347 266 344 273 344 280"/></g>
<polygon style="fill:black;stroke:black" points="343,279 344,285 345,279 343,279"/>
<text text-anchor="middle" transform="rotate(-90 354 257)" x="354" y="257" style="font-family:Helvetica;font-size:4.78">*, Add</text>
</g>
<g id="BuildData-&gt;InAng" class="edge">
<g style="fill:none;stroke:black"><path d="M356 330C368 393 389 460 399 494"/></g>
<polygon style="fill:black;stroke:black" points="397,494 401,498 400,492 397,494"/>
<text text-anchor="middle" transform="rotate(-90 381 373)" x="381" y="373" style="font-family:Helvetica;font-size:4.78">LAQUOT, Add (dCommaSep)</text>
</g>
<g id="BuildData-&gt;InQ" class="edge">
<g style="fill:none;stroke:black"><path d="M362 316C366 319 370 323 375 326 380 328 385 330 390 331"/></g>
<polygon style="fill:black;stroke:black" points="390,332 396,332 390,329 390,332"/>
<text text-anchor="middle" transform="rotate(-90 381 293)" x="381" y="293" style="font-family:Helvetica;font-size:4.78">QUOT, Add (dCommaSep)</text>
</g>
<g id="BuildDataCrLf" class="node">
<ellipse cx="406" cy="227" rx="10" ry="38" style="fill:none;stroke:black"/>
<text text-anchor="middle" transform="rotate(-90 409 227)" x="409" y="227" style="font-family:Helvetica;font-size:8.37">BuildDataCrLf</text>
</g>
<g id="BuildData-&gt;BuildDataCrLf" class="edge">
<g style="fill:none;stroke:black"><path d="M353 277C353 277 353 276 353 276 359 251 353 236 375 221 378 220 384 221 392 222"/></g>
<polygon style="fill:black;stroke:black" points="390,223 396,223 390,220 390,223"/>
<text text-anchor="middle" transform="rotate(-90 381 210)" x="381" y="210" style="font-family:Helvetica;font-size:4.78">CR, Nil</text>
</g>
<g id="EmptyHdrCrLf-&gt;EndMsg" class="edge">
<g style="fill:none;stroke:black"><path d="M363 598C374 592 391 585 406 584 406 584 406 584 515 584 542 585 561 394 567 321"/></g>
<polygon style="fill:black;stroke:black" points="568,323 567,317 565,323 568,323"/>
<text text-anchor="middle" transform="rotate(-90 463 567)" x="463" y="567" style="font-family:Helvetica;font-size:4.78">*, Bad|Discard</text>
</g>
<g id="EmptyHdrCrLf-&gt;BuildHdr" class="edge">
<g style="fill:none;stroke:black"><path d="M194 541C209 604 206 641 267 676 270 678 272 677 275 676 291 669 325 634 342 615"/></g>
<polygon style="fill:black;stroke:black" points="197,543 193,537 194,543 197,543"/>
<text text-anchor="middle" transform="rotate(-90 273 659)" x="273" y="659" style="font-family:Helvetica;font-size:4.78">LF, Discard</text>
</g>
<g id="InAng-&gt;BuildData" class="edge">
<g style="fill:none;stroke:black"><path d="M354 337C357 354 360 360 363 379 370 426 354 442 375 483 375 484 388 497 397 506"/></g>
<polygon style="fill:black;stroke:black" points="356,338 353,332 353,338 356,338"/>
<text text-anchor="middle" transform="rotate(-90 381 461)" x="381" y="461" style="font-family:Helvetica;font-size:4.78">RAQUOT, Add</text>
</g>
<g id="InAng-&gt;InAng" class="edge">
<g style="fill:none;stroke:black"><path d="M414 501C415 492 413 485 406 485 402 485 399 489 399 495"/></g>
<polygon style="fill:black;stroke:black" points="397,495 399,501 400,495 397,495"/>
<text text-anchor="middle" transform="rotate(-90 408 476)" x="408" y="476" style="font-family:Helvetica;font-size:4.78">*, Add</text>
</g>
<g id="InAngQ" class="node">
<ellipse cx="461" cy="498" rx="10" ry="23" style="fill:none;stroke:black"/>
<text text-anchor="middle" transform="rotate(-90 464 498)" x="464" y="498" style="font-family:Helvetica;font-size:8.37">InAngQ</text>
</g>
<g id="InAng-&gt;InAngQ" class="edge">
<g style="fill:none;stroke:black"><path d="M417 524C423 528 431 531 438 528 442 525 446 522 449 519"/></g>
<polygon style="fill:black;stroke:black" points="450,519 452,514 448,518 450,519"/>
<text text-anchor="middle" transform="rotate(-90 435 512)" x="435" y="512" style="font-family:Helvetica;font-size:4.78">QUOT, Add</text>
</g>
<g id="InQ-&gt;BuildData" class="edge">
<g style="fill:none;stroke:black"><path d="M360 276C365 262 373 250 383 258 384 259 396 298 402 319"/></g>
<polygon style="fill:black;stroke:black" points="359,276 358,282 362,276 359,276"/>
<text text-anchor="middle" transform="rotate(-90 381 240)" x="381" y="240" style="font-family:Helvetica;font-size:4.78">QUOT, Add</text>
</g>
<g id="InQ-&gt;InQ" class="edge">
<g style="fill:none;stroke:black"><path d="M414 322C416 314 414 307 406 307 401 307 399 311 399 316"/></g>
<polygon style="fill:black;stroke:black" points="397,316 399,322 400,316 397,316"/>
<text text-anchor="middle" transform="rotate(-90 408 298)" x="408" y="298" style="font-family:Helvetica;font-size:4.78">*, Add</text>
</g>
<g id="InQEsc" class="node">
<ellipse cx="461" cy="360" rx="10" ry="21" style="fill:none;stroke:black"/>
<text text-anchor="middle" transform="rotate(-90 464 360)" x="464" y="360" style="font-family:Helvetica;font-size:8.37">InQEsc</text>
</g>
<g id="InQ-&gt;InQEsc" class="edge">
<g style="fill:none;stroke:black"><path d="M409 350C413 360 418 374 429 380 433 383 435 382 438 380 441 379 444 377 447 375"/></g>
<polygon style="fill:black;stroke:black" points="448,376 451,371 446,374 448,376"/>
<text text-anchor="middle" transform="rotate(-90 435 361)" x="435" y="361" style="font-family:Helvetica;font-size:4.78">LSLASH, Add</text>
</g>
<g id="BuildDataCrLf-&gt;EndMsg" class="edge">
<g style="fill:none;stroke:black"><path d="M417 231C446 242 522 274 554 287"/></g>
<polygon style="fill:black;stroke:black" points="552,288 558,289 553,285 552,288"/>
<text text-anchor="middle" transform="rotate(-90 489 240)" x="489" y="240" style="font-family:Helvetica;font-size:4.78">*, Bad |Discard</text>
</g>
<g id="CheckCont" class="node">
<ellipse cx="461" cy="197" rx="10" ry="29" style="fill:none;stroke:black"/>
<text text-anchor="middle" transform="rotate(-90 464 197)" x="464" y="197" style="font-family:Helvetica;font-size:8.37">CheckCont</text>
</g>
<g id="BuildDataCrLf-&gt;CheckCont" class="edge">
<g style="fill:none;stroke:black"><path d="M417 221C425 216 436 210 445 206"/></g>
<polygon style="fill:black;stroke:black" points="446,207 450,203 444,204 446,207"/>
<text text-anchor="middle" transform="rotate(-90 435 200)" x="435" y="200" style="font-family:Helvetica;font-size:4.78">LF, Nil</text>
</g>
<g id="CheckCont-&gt;BuildHdr" class="edge">
<g style="fill:none;stroke:black"><path d="M192 483C200 391 226 123 243 122 243 122 243 122 406 122 432 123 447 151 454 173"/></g>
<polygon style="fill:black;stroke:black" points="191,482 191,488 194,482 191,482"/>
<text text-anchor="middle" transform="rotate(-90 326 90)" x="326" y="90" style="font-family:Helvetica;font-size:4.78">*, Data|Reset|Back |Discard</text>
</g>
<g id="CheckCont-&gt;BuildData" class="edge">
<g style="fill:none;stroke:black"><path d="M353 271C357 238 354 225 375 197 387 182 397 181 417 183 429 185 442 189 450 193"/></g>
<polygon style="fill:black;stroke:black" points="351,271 353,277 354,271 351,271"/>
<text text-anchor="middle" transform="rotate(-90 408 169)" x="408" y="169" style="font-family:Helvetica;font-size:4.78">LWS, Add </text>
</g>
<g id="CheckEndHdr" class="node">
<ellipse cx="515" cy="209" rx="10" ry="36" style="fill:none;stroke:black"/>
<text text-anchor="middle" transform="rotate(-90 518 209)" x="518" y="209" style="font-family:Helvetica;font-size:8.37">CheckEndHdr</text>
</g>
<g id="CheckCont-&gt;CheckEndHdr" class="edge">
<g style="fill:none;stroke:black"><path d="M472 199C479 201 490 203 499 205"/></g>
<polygon style="fill:black;stroke:black" points="498,206 504,206 499,203 498,206"/>
<text text-anchor="middle" transform="rotate(-90 489 174)" x="489" y="174" style="font-family:Helvetica;font-size:4.78">CR, Data|Reset |Discard</text>
</g>
<g id="CheckEndHdr-&gt;EndMsg" class="edge">
<g style="fill:none;stroke:black"><path d="M524 230C528 239 533 249 538 257 543 265 550 273 555 279"/></g>
<polygon style="fill:black;stroke:black" points="553,280 559,283 556,277 553,280"/>
<text text-anchor="middle" transform="rotate(-90 544 237)" x="544" y="237" style="font-family:Helvetica;font-size:4.78">*, Bad |Discard</text>
</g>
<g id="CheckEndHdr-&gt;EndMsg" class="edge">
<g style="fill:none;stroke:black"><path d="M526 212C534 213 543 216 546 219 563 236 562 247 565 265"/></g>
<polygon style="fill:black;stroke:black" points="564,264 566,270 567,264 564,264"/>
<text text-anchor="middle" transform="rotate(-90 544 190)" x="544" y="190" style="font-family:Helvetica;font-size:4.78">LF, EndHdrs |Discard</text>
</g>
<g id="InAngQ-&gt;InAng" class="edge">
<g style="fill:none;stroke:black"><path d="M420 502C424 498 428 494 429 493 436 491 444 492 450 494"/></g>
<polygon style="fill:black;stroke:black" points="419,500 416,506 421,503 419,500"/>
<text text-anchor="middle" transform="rotate(-90 435 476)" x="435" y="476" style="font-family:Helvetica;font-size:4.78">QUOT, Add</text>
</g>
<g id="InAngQ-&gt;InAngQ" class="edge">
<g style="fill:none;stroke:black"><path d="M469 482C470 473 467 464 461 464 456 464 453 469 453 475"/></g>
<polygon style="fill:black;stroke:black" points="451,476 453,482 454,476 451,476"/>
<text text-anchor="middle" transform="rotate(-90 463 455)" x="463" y="455" style="font-family:Helvetica;font-size:4.78">*, Add</text>
</g>
<g id="InAngQEsc" class="node">
<ellipse cx="515" cy="498" rx="10" ry="30" style="fill:none;stroke:black"/>
<text text-anchor="middle" transform="rotate(-90 518 498)" x="518" y="498" style="font-family:Helvetica;font-size:8.37">InAngQEsc</text>
</g>
<g id="InAngQ-&gt;InAngQEsc" class="edge">
<g style="fill:none;stroke:black"><path d="M470 509C475 513 481 518 484 519 487 521 489 521 492 519 493 519 497 516 501 512"/></g>
<polygon style="fill:black;stroke:black" points="502,513 505,508 500,511 502,513"/>
<text text-anchor="middle" transform="rotate(-90 489 500)" x="489" y="500" style="font-family:Helvetica;font-size:4.78">LSLASH, Add</text>
</g>
<g id="InAngQEsc-&gt;InAngQ" class="edge">
<g style="fill:none;stroke:black"><path d="M473 485C477 483 480 481 484 479 491 476 499 481 505 486"/></g>
<polygon style="fill:black;stroke:black" points="474,483 470,488 476,485 474,483"/>
<text text-anchor="middle" transform="rotate(-90 489 470)" x="489" y="470" style="font-family:Helvetica;font-size:4.78">*, Add</text>
</g>
<g id="InQEsc-&gt;InQ" class="edge">
<g style="fill:none;stroke:black"><path d="M421 335C426 336 432 338 438 340 439 341 445 346 451 351"/></g>
<polygon style="fill:black;stroke:black" points="423,334 417,335 423,337 423,334"/>
<text text-anchor="middle" transform="rotate(-90 435 329)" x="435" y="329" style="font-family:Helvetica;font-size:4.78">*, Add</text>
</g>
</g>
</svg>
