<!-- Generated by dot version 1.7.14 (Mon Oct 21 18:19:04 MDT 2002)
     For user: (alan)    Title: pp_fsm    Pages: 1-->
<svg width="742px" height="504px" xmlns='http://www.w3.org/2000/svg' xmlns:xlink='http://www.w3.org/1999/xlink'>
<g id="pp_fsm" class="graph">
<g id="NewMsg" class="node">
<ellipse cx="650" cy="16" rx="23" ry="9" style="fill:none;stroke:black"/>
<text text-anchor="middle" x="650" y="19" style="font-family:Helvetica;font-size:7.54">NewMsg</text>
</g>
<g id="StartLine" class="node">
<ellipse cx="604" cy="62" rx="22" ry="9" style="fill:none;stroke:black"/>
<text text-anchor="middle" x="604" y="65" style="font-family:Helvetica;font-size:7.54">StartLine</text>
</g>
<g id="NewMsg-&gt;StartLine" class="edge">
<g style="fill:none;stroke:black"><path d="M637 24C630 29 622 34 620 35 616 39 613 44 610 48"/></g>
<polygon style="fill:black;stroke:black" points="609,47 608,53 612,48 609,47"/>
<text text-anchor="middle" x="629" y="41" style="font-family:Helvetica;font-size:4.31">X, Add </text>
</g>
<g id="NewMsgCrLf" class="node">
<ellipse cx="697" cy="62" rx="32" ry="9" style="fill:none;stroke:black"/>
<text text-anchor="middle" x="697" y="65" style="font-family:Helvetica;font-size:7.54">NewMsgCrLf</text>
</g>
<g id="NewMsg-&gt;NewMsgCrLf" class="edge">
<g style="fill:none;stroke:black"><path d="M663 24C670 29 678 34 679 35 680 36 684 42 688 49"/></g>
<polygon style="fill:black;stroke:black" points="686,49 691,53 688,47 686,49"/>
<text text-anchor="middle" x="695" y="41" style="font-family:Helvetica;font-size:4.31">CR, None </text>
</g>
<g id="StartLine-&gt;StartLine" class="edge">
<g style="fill:none;stroke:black"><path d="M619 69C628 70 636 68 636 62 636 58 631 55 625 55"/></g>
<polygon style="fill:black;stroke:black" points="625,54 619,55 625,56 625,54"/>
<text text-anchor="middle" x="645" y="64" style="font-family:Helvetica;font-size:4.31">X, Add</text>
</g>
<g id="StartLineCrLf" class="node">
<ellipse cx="604" cy="109" rx="32" ry="9" style="fill:none;stroke:black"/>
<text text-anchor="middle" x="604" y="111" style="font-family:Helvetica;font-size:7.54">StartLineCrLf</text>
</g>
<g id="StartLine-&gt;StartLineCrLf" class="edge">
<g style="fill:none;stroke:black"><path d="M604 72C604 79 604 87 604 94"/></g>
<polygon style="fill:black;stroke:black" points="603,94 604,99 605,94 603,94"/>
<text text-anchor="middle" x="616" y="87" style="font-family:Helvetica;font-size:4.31">CR, None</text>
</g>
<g id="NewMsgCrLf-&gt;NewMsg" class="edge">
<g style="fill:none;stroke:black"><path d="M648 29C647 34 648 39 650 43 655 50 662 54 669 58"/></g>
<polygon style="fill:black;stroke:black" points="649,31 648,26 646,31 649,31"/>
<text text-anchor="middle" x="664" y="41" style="font-family:Helvetica;font-size:4.31">LF, Discard </text>
</g>
<g id="EndMsg" class="node">
<ellipse cx="490" cy="479" rx="21" ry="9" style="fill:none;stroke:black"/>
<text text-anchor="middle" x="490" y="482" style="font-family:Helvetica;font-size:7.54">EndMsg</text>
</g>
<g id="NewMsgCrLf-&gt;EndMsg" class="edge">
<g style="fill:none;stroke:black"><path d="M697 72C697 82 696 96 697 109 697 109 697 109 697 433 696 471 661 468 625 478 625 479 556 479 517 479"/></g>
<polygon style="fill:black;stroke:black" points="517,478 512,479 517,481 517,478"/>
<text text-anchor="middle" x="714" y="273" style="font-family:Helvetica;font-size:4.31">X, Bad|Discard </text>
</g>
<g id="StartLineCrLf-&gt;EndMsg" class="edge">
<g style="fill:none;stroke:black"><path d="M615 118C628 129 647 146 648 155 648 155 648 155 648 433 647 494 577 469 517 478"/></g>
<polygon style="fill:black;stroke:black" points="517,477 512,478 517,479 517,477"/>
<text text-anchor="middle" x="665" y="296" style="font-family:Helvetica;font-size:4.31">X, Bad|Discard</text>
</g>
<g id="BuildHdr" class="node">
<ellipse cx="518" cy="155" rx="23" ry="9" style="fill:none;stroke:black"/>
<text text-anchor="middle" x="518" y="158" style="font-family:Helvetica;font-size:7.54">BuildHdr</text>
</g>
<g id="StartLineCrLf-&gt;BuildHdr" class="edge">
<g style="fill:none;stroke:black"><path d="M588 117C574 125 553 136 538 145"/></g>
<polygon style="fill:black;stroke:black" points="537,144 533,148 538,146 537,144"/>
<text text-anchor="middle" x="593" y="133" style="font-family:Helvetica;font-size:4.31">LF, Reset|Fline|Discard</text>
</g>
<g id="BuildHdr-&gt;BuildHdr" class="edge">
<g style="fill:none;stroke:black"><path d="M534 162C543 163 551 161 551 155 551 151 546 148 540 148"/></g>
<polygon style="fill:black;stroke:black" points="540,146 534,148 540,149 540,146"/>
<text text-anchor="middle" x="560" y="157" style="font-family:Helvetica;font-size:4.31">X, Add</text>
</g>
<g id="EWSPostHdr" class="node">
<ellipse cx="564" cy="201" rx="30" ry="9" style="fill:none;stroke:black"/>
<text text-anchor="middle" x="564" y="204" style="font-family:Helvetica;font-size:7.54">EWSPostHdr</text>
</g>
<g id="BuildHdr-&gt;EWSPostHdr" class="edge">
<g style="fill:none;stroke:black"><path d="M527 164C534 171 543 181 552 188"/></g>
<polygon style="fill:black;stroke:black" points="550,189 555,192 552,187 550,189"/>
<text text-anchor="middle" x="557" y="180" style="font-family:Helvetica;font-size:4.31">LWS, None</text>
</g>
<g id="EWSPostColon" class="node">
<ellipse cx="322" cy="248" rx="33" ry="9" style="fill:none;stroke:black"/>
<text text-anchor="middle" x="322" y="250" style="font-family:Helvetica;font-size:7.54">EWSPostColon</text>
</g>
<g id="BuildHdr-&gt;EWSPostColon" class="edge">
<g style="fill:none;stroke:black"><path d="M502 162C481 171 446 186 434 192 402 207 366 225 343 237"/></g>
<polygon style="fill:black;stroke:black" points="342,236 338,239 344,238 342,236"/>
<text text-anchor="middle" x="475" y="203" style="font-family:Helvetica;font-size:4.31">COLON, Hdr|Reset|DiscardKnown</text>
</g>
<g id="EWSPostHdr-&gt;EndMsg" class="edge">
<g style="fill:none;stroke:black"><path d="M572 211C582 223 597 243 598 248 598 248 598 248 598 433 597 451 546 467 514 474"/></g>
<polygon style="fill:black;stroke:black" points="515,472 510,475 515,475 515,472"/>
<text text-anchor="middle" x="615" y="342" style="font-family:Helvetica;font-size:4.31">X, Bad|Discard</text>
</g>
<g id="EWSPostHdr-&gt;EWSPostHdr" class="edge">
<g style="fill:none;stroke:black"><path d="M585 208C595 209 604 207 604 201 604 197 597 194 589 194"/></g>
<polygon style="fill:black;stroke:black" points="590,193 585,194 590,195 590,193"/>
<text text-anchor="middle" x="618" y="203" style="font-family:Helvetica;font-size:4.31">LWS, None</text>
</g>
<g id="EWSPostHdr-&gt;EWSPostColon" class="edge">
<g style="fill:none;stroke:black"><path d="M538 206C493 215 403 232 355 241"/></g>
<polygon style="fill:black;stroke:black" points="355,240 351,242 356,242 355,240"/>
<text text-anchor="middle" x="502" y="226" style="font-family:Helvetica;font-size:4.31">COLON, Hdr|Reset|DiscardKnown</text>
</g>
<g id="EWSPostColon-&gt;EWSPostColon" class="edge">
<g style="fill:none;stroke:black"><path d="M345 255C356 256 366 253 366 248 366 243 359 240 349 241"/></g>
<polygon style="fill:black;stroke:black" points="351,239 345,241 351,242 351,239"/>
<text text-anchor="middle" x="396" y="249" style="font-family:Helvetica;font-size:4.31">LWS, Reset|DiscardKnown</text>
</g>
<g id="BuildData" class="node">
<ellipse cx="330" cy="294" rx="24" ry="9" style="fill:none;stroke:black"/>
<text text-anchor="middle" x="330" y="297" style="font-family:Helvetica;font-size:7.54">BuildData</text>
</g>
<g id="EWSPostColon-&gt;BuildData" class="edge">
<g style="fill:none;stroke:black"><path d="M316 257C313 261 311 265 311 267 310 271 309 272 311 275 312 277 313 280 314 282"/></g>
<polygon style="fill:black;stroke:black" points="313,283 318,285 316,281 313,283"/>
<text text-anchor="middle" x="320" y="273" style="font-family:Helvetica;font-size:4.31">X, Add</text>
</g>
<g id="EmptyHdrCrLf" class="node">
<ellipse cx="151" cy="294" rx="35" ry="9" style="fill:none;stroke:black"/>
<text text-anchor="middle" x="151" y="297" style="font-family:Helvetica;font-size:7.54">EmptyHdrCrLf</text>
</g>
<g id="EWSPostColon-&gt;EmptyHdrCrLf" class="edge">
<g style="fill:none;stroke:black"><path d="M289 250C238 254 147 262 142 267 140 270 141 271 142 275 142 276 143 278 144 280"/></g>
<polygon style="fill:black;stroke:black" points="143,280 146,284 145,279 143,280"/>
<text text-anchor="middle" x="174" y="273" style="font-family:Helvetica;font-size:4.31">CR, Reset|DiscardKnown</text>
</g>
<g id="InAng" class="node">
<ellipse cx="485" cy="340" rx="17" ry="9" style="fill:none;stroke:black"/>
<text text-anchor="middle" x="485" y="343" style="font-family:Helvetica;font-size:7.54">InAng</text>
</g>
<g id="EWSPostColon-&gt;InAng" class="edge">
<g style="fill:none;stroke:black"><path d="M353 252C387 256 436 263 444 267 464 278 460 292 480 304 494 312 506 301 517 313 518 316 518 318 517 321 515 323 508 328 501 331"/></g>
<polygon style="fill:black;stroke:black" points="501,330 497,333 503,332 501,330"/>
<text text-anchor="middle" x="514" y="296" style="font-family:Helvetica;font-size:4.31">LAQUOT, Add  (dCommaSep)</text>
</g>
<g id="InQ" class="node">
<ellipse cx="196" cy="340" rx="14" ry="9" style="fill:none;stroke:black"/>
<text text-anchor="middle" x="196" y="343" style="font-family:Helvetica;font-size:7.54">InQ</text>
</g>
<g id="EWSPostColon-&gt;InQ" class="edge">
<g style="fill:none;stroke:black"><path d="M297 254C252 267 226 269 199 313 197 317 196 322 195 326"/></g>
<polygon style="fill:black;stroke:black" points="194,325 195,331 197,325 194,325"/>
<text text-anchor="middle" x="252" y="296" style="font-family:Helvetica;font-size:4.31">QUOT, Add  (dCommaSep)</text>
</g>
<g id="BuildData-&gt;EWSPostColon" class="edge">
<g style="fill:none;stroke:black"><path d="M329 261C330 263 331 265 331 267 332 273 332 279 331 284"/></g>
<polygon style="fill:black;stroke:black" points="331,262 327,257 328,263 331,262"/>
<text text-anchor="middle" x="387" y="273" style="font-family:Helvetica;font-size:4.31">COMMA, Data|Reset|DiscardKnown (dCommaSep)</text>
</g>
<g id="BuildData-&gt;BuildData" class="edge">
<g style="fill:none;stroke:black"><path d="M347 301C356 302 364 300 364 294 364 289 358 287 351 287"/></g>
<polygon style="fill:black;stroke:black" points="352,285 347,287 352,288 352,285"/>
<text text-anchor="middle" x="373" y="296" style="font-family:Helvetica;font-size:4.31">X, Add</text>
</g>
<g id="BuildData-&gt;InAng" class="edge">
<g style="fill:none;stroke:black"><path d="M347 301C366 308 393 318 403 321 405 322 439 330 463 336"/></g>
<polygon style="fill:black;stroke:black" points="463,337 468,337 463,334 463,337"/>
<text text-anchor="middle" x="437" y="319" style="font-family:Helvetica;font-size:4.31">LAQUOT, Add (dCommaSep)</text>
</g>
<g id="BuildData-&gt;InQ" class="edge">
<g style="fill:none;stroke:black"><path d="M306 298C291 301 271 303 268 304 253 306 214 304 204 313 203 314 202 320 200 326"/></g>
<polygon style="fill:black;stroke:black" points="199,325 199,331 201,326 199,325"/>
<text text-anchor="middle" x="235" y="319" style="font-family:Helvetica;font-size:4.31">QUOT, Add (dCommaSep)</text>
</g>
<g id="BuildDataCrLf" class="node">
<ellipse cx="320" cy="340" rx="34" ry="9" style="fill:none;stroke:black"/>
<text text-anchor="middle" x="320" y="343" style="font-family:Helvetica;font-size:7.54">BuildDataCrLf</text>
</g>
<g id="BuildData-&gt;BuildDataCrLf" class="edge">
<g style="fill:none;stroke:black"><path d="M327 304C326 310 325 318 323 326"/></g>
<polygon style="fill:black;stroke:black" points="322,325 322,331 325,326 322,325"/>
<text text-anchor="middle" x="341" y="319" style="font-family:Helvetica;font-size:4.31">CR, None|Flat</text>
</g>
<g id="EmptyHdrCrLf-&gt;EndMsg" class="edge">
<g style="fill:none;stroke:black"><path d="M151 304C151 313 151 328 151 340 151 340 151 340 151 433 151 501 385 472 452 478 455 479 459 479 464 479"/></g>
<polygon style="fill:black;stroke:black" points="463,480 469,479 463,477 463,480"/>
<text text-anchor="middle" x="168" y="388" style="font-family:Helvetica;font-size:4.31">X, Bad|Discard</text>
</g>
<g id="EmptyHdrCont" class="node">
<ellipse cx="46" cy="340" rx="35" ry="9" style="fill:none;stroke:black"/>
<text text-anchor="middle" x="46" y="343" style="font-family:Helvetica;font-size:7.54">EmptyHdrCont</text>
</g>
<g id="EmptyHdrCrLf-&gt;EmptyHdrCont" class="edge">
<g style="fill:none;stroke:black"><path d="M125 301C113 304 100 308 88 313 83 316 72 323 62 329"/></g>
<polygon style="fill:black;stroke:black" points="63,327 59,331 64,330 63,327"/>
<text text-anchor="middle" x="120" y="319" style="font-family:Helvetica;font-size:4.31">LF, Reset|DiscardKnown</text>
</g>
<g id="EmptyHdrCont-&gt;BuildHdr" class="edge">
<g style="fill:none;stroke:black"><path d="M490 157C404 159 21 151 21 201 21 201 21 201 21 294 21 312 25 321 35 331"/></g>
<polygon style="fill:black;stroke:black" points="490,158 495,157 490,155 490,158"/>
<text text-anchor="middle" x="45" y="249" style="font-family:Helvetica;font-size:4.31">X, Reset|Back|Discard</text>
</g>
<g id="EmptyHdrCont-&gt;EWSPostColon" class="edge">
<g style="fill:none;stroke:black"><path d="M285 249C228 252 86 245 50 284 40 297 41 318 43 331"/></g>
<polygon style="fill:black;stroke:black" points="283,250 288,249 283,247 283,250"/>
<text text-anchor="middle" x="82" y="296" style="font-family:Helvetica;font-size:4.31">LWS, Reset|DiscardKnown</text>
</g>
<g id="InAng-&gt;BuildData" class="edge">
<g style="fill:none;stroke:black"><path d="M359 295C396 297 455 301 472 313 478 318 481 325 483 331"/></g>
<polygon style="fill:black;stroke:black" points="360,293 354,295 360,296 360,293"/>
<text text-anchor="middle" x="496" y="319" style="font-family:Helvetica;font-size:4.31">RAQUOT, Add</text>
</g>
<g id="InAng-&gt;InAng" class="edge">
<g style="fill:none;stroke:black"><path d="M498 347C505 349 512 346 512 340 512 336 508 334 503 333"/></g>
<polygon style="fill:black;stroke:black" points="503,332 498,333 503,335 503,332"/>
<text text-anchor="middle" x="521" y="342" style="font-family:Helvetica;font-size:4.31">X, Add</text>
</g>
<g id="InAngQ" class="node">
<ellipse cx="498" cy="387" rx="21" ry="9" style="fill:none;stroke:black"/>
<text text-anchor="middle" x="498" y="389" style="font-family:Helvetica;font-size:7.54">InAngQ</text>
</g>
<g id="InAng-&gt;InAngQ" class="edge">
<g style="fill:none;stroke:black"><path d="M487 350C489 357 492 365 493 372"/></g>
<polygon style="fill:black;stroke:black" points="492,372 495,377 494,372 492,372"/>
<text text-anchor="middle" x="506" y="365" style="font-family:Helvetica;font-size:4.31">QUOT, Add</text>
</g>
<g id="InQ-&gt;BuildData" class="edge">
<g style="fill:none;stroke:black"><path d="M310 304C297 309 280 316 265 321 260 323 229 332 210 337"/></g>
<polygon style="fill:black;stroke:black" points="310,305 314,302 309,303 310,305"/>
<text text-anchor="middle" x="303" y="319" style="font-family:Helvetica;font-size:4.31">QUOT, Add</text>
</g>
<g id="InQ-&gt;InQ" class="edge">
<g style="fill:none;stroke:black"><path d="M207 347C214 349 221 347 221 340 221 336 217 333 213 333"/></g>
<polygon style="fill:black;stroke:black" points="213,332 207,334 213,335 213,332"/>
<text text-anchor="middle" x="230" y="342" style="font-family:Helvetica;font-size:4.31">X, Add</text>
</g>
<g id="InQEsc" class="node">
<ellipse cx="227" cy="387" rx="19" ry="9" style="fill:none;stroke:black"/>
<text text-anchor="middle" x="227" y="389" style="font-family:Helvetica;font-size:7.54">InQEsc</text>
</g>
<g id="InQ-&gt;InQEsc" class="edge">
<g style="fill:none;stroke:black"><path d="M194 350C193 357 192 365 194 367 194 368 202 373 209 377"/></g>
<polygon style="fill:black;stroke:black" points="208,378 214,380 210,376 208,378"/>
<text text-anchor="middle" x="211" y="365" style="font-family:Helvetica;font-size:4.31">LSLASH, Add</text>
</g>
<g id="BuildDataCrLf-&gt;EndMsg" class="edge">
<g style="fill:none;stroke:black"><path d="M321 350C321 356 323 362 325 367 343 407 353 415 386 443 408 463 415 471 445 476 453 478 456 478 463 478"/></g>
<polygon style="fill:black;stroke:black" points="463,479 469,478 463,477 463,479"/>
<text text-anchor="middle" x="370" y="412" style="font-family:Helvetica;font-size:4.31">X, Bad|Discard</text>
</g>
<g id="CheckCont" class="node">
<ellipse cx="401" cy="387" rx="26" ry="9" style="fill:none;stroke:black"/>
<text text-anchor="middle" x="401" y="389" style="font-family:Helvetica;font-size:7.54">CheckCont</text>
</g>
<g id="BuildDataCrLf-&gt;CheckCont" class="edge">
<g style="fill:none;stroke:black"><path d="M324 350C326 356 330 363 335 367 346 376 359 380 372 384"/></g>
<polygon style="fill:black;stroke:black" points="370,385 375,384 370,382 370,385"/>
<text text-anchor="middle" x="351" y="365" style="font-family:Helvetica;font-size:4.31">LF, None|Flat</text>
</g>
<g id="CheckCont-&gt;BuildHdr" class="edge">
<g style="fill:none;stroke:black"><path d="M516 170C513 193 510 242 532 275 537 282 545 277 549 284 554 292 550 296 549 304 546 325 545 331 535 350 531 359 531 363 522 367 518 370 460 379 425 384"/></g>
<polygon style="fill:black;stroke:black" points="517,170 517,165 514,170 517,170"/>
<text text-anchor="middle" x="561" y="273" style="font-family:Helvetica;font-size:4.31">X, Data|Reset|Back|Discard</text>
</g>
<g id="CheckCont-&gt;BuildData" class="edge">
<g style="fill:none;stroke:black"><path d="M349 304C353 307 356 310 360 313 364 319 386 359 396 377"/></g>
<polygon style="fill:black;stroke:black" points="350,303 345,302 348,305 350,303"/>
<text text-anchor="middle" x="393" y="342" style="font-family:Helvetica;font-size:4.31">LWS, Add </text>
</g>
<g id="CheckEndHdr" class="node">
<ellipse cx="424" cy="433" rx="32" ry="9" style="fill:none;stroke:black"/>
<text text-anchor="middle" x="424" y="436" style="font-family:Helvetica;font-size:7.54">CheckEndHdr</text>
</g>
<g id="CheckCont-&gt;CheckEndHdr" class="edge">
<g style="fill:none;stroke:black"><path d="M406 396C409 403 413 412 417 419"/></g>
<polygon style="fill:black;stroke:black" points="415,419 419,423 418,418 415,419"/>
<text text-anchor="middle" x="438" y="412" style="font-family:Helvetica;font-size:4.31">CR, Data|Reset|Discard</text>
</g>
<g id="CheckEndHdr-&gt;EndMsg" class="edge">
<g style="fill:none;stroke:black"><path d="M446 441C457 444 469 449 473 453 474 454 478 460 482 467"/></g>
<polygon style="fill:black;stroke:black" points="480,467 484,470 483,465 480,467"/>
<text text-anchor="middle" x="494" y="458" style="font-family:Helvetica;font-size:4.31">X, Bad|Discard</text>
</g>
<g id="CheckEndHdr-&gt;EndMsg" class="edge">
<g style="fill:none;stroke:black"><path d="M421 443C420 449 420 455 424 460 436 477 448 476 465 477"/></g>
<polygon style="fill:black;stroke:black" points="464,478 469,477 464,475 464,478"/>
<text text-anchor="middle" x="448" y="458" style="font-family:Helvetica;font-size:4.31">LF, EndHdrs|Discard</text>
</g>
<g id="InAngQ-&gt;InAng" class="edge">
<g style="fill:none;stroke:black"><path d="M505 347C512 349 517 352 522 360 524 363 524 365 522 367 521 369 515 374 509 379"/></g>
<polygon style="fill:black;stroke:black" points="505,346 500,346 505,349 505,346"/>
<text text-anchor="middle" x="538" y="365" style="font-family:Helvetica;font-size:4.31">QUOT, Add</text>
</g>
<g id="InAngQ-&gt;InAngQ" class="edge">
<g style="fill:none;stroke:black"><path d="M513 394C521 395 528 393 528 387 528 382 524 380 519 380"/></g>
<polygon style="fill:black;stroke:black" points="518,378 513,380 518,381 518,378"/>
<text text-anchor="middle" x="538" y="388" style="font-family:Helvetica;font-size:4.31">X, Add</text>
</g>
<g id="InAngQEsc" class="node">
<ellipse cx="511" cy="433" rx="27" ry="9" style="fill:none;stroke:black"/>
<text text-anchor="middle" x="511" y="436" style="font-family:Helvetica;font-size:7.54">InAngQEsc</text>
</g>
<g id="InAngQ-&gt;InAngQEsc" class="edge">
<g style="fill:none;stroke:black"><path d="M493 396C491 401 490 408 492 414 493 416 494 418 496 420"/></g>
<polygon style="fill:black;stroke:black" points="494,421 499,425 497,419 494,421"/>
<text text-anchor="middle" x="509" y="412" style="font-family:Helvetica;font-size:4.31">LSLASH, Add</text>
</g>
<g id="InAngQEsc-&gt;InAngQ" class="edge">
<g style="fill:none;stroke:black"><path d="M518 396C522 399 526 402 528 406 529 409 529 411 528 414 527 415 524 420 520 424"/></g>
<polygon style="fill:black;stroke:black" points="519,395 513,393 517,397 519,395"/>
<text text-anchor="middle" x="538" y="412" style="font-family:Helvetica;font-size:4.31">X, Add</text>
</g>
<g id="InQEsc-&gt;InQ" class="edge">
<g style="fill:none;stroke:black"><path d="M212 347C220 352 228 357 230 360 233 365 232 372 231 377"/></g>
<polygon style="fill:black;stroke:black" points="214,347 208,346 213,349 214,347"/>
<text text-anchor="middle" x="241" y="365" style="font-family:Helvetica;font-size:4.31">X, Add</text>
</g>
</g>
</svg>
