<?xml version="1.0" encoding="UTF-8" standalone="no"?>
<!DOCTYPE svg PUBLIC "-//W3C//DTD SVG 1.0//EN"
 "http://www.w3.org/TR/2001/REC-SVG-20010904/DTD/svg10.dtd">
<!-- Generated by dot version 1.9 (Wed Apr 16 21:58:33 MDT 2003)
     For user: (alan)    Title: pp_fsm    Pages: 1 -->
<svg width="975px" height="605px"
 xmlns="http://www.w3.org/2000/svg">
<g id="graph0" class="graph" style="font-family:Times-Roman;font-size:9.07;">
<title>pp_fsm</title>
<g id="node1" class="node"><title>NewMsg</title>
<ellipse cx="82" cy="21" rx="27" ry="11" style="fill:none;stroke:black;"/>
<text text-anchor="middle" x="82" y="24" style="font-family:Helvetica;">NewMsg</text>
</g>
<g id="node3" class="node"><title>StartLine</title>
<ellipse cx="142" cy="76" rx="27" ry="11" style="fill:none;stroke:black;"/>
<text text-anchor="middle" x="142" y="80" style="font-family:Helvetica;">StartLine</text>
</g>
<g id="edge2" class="edge"><title>NewMsg-&gt;StartLine</title>
<path style="fill:none;stroke:black;" d="M98,30C104,34 111,39 116,44 122,49 126,54 131,60"/>
<polygon style="fill:black;stroke:black;" points="131,58 134,65 129,60 131,58"/>
<text text-anchor="middle" x="137" y="50" style="font-family:Helvetica;font-size:5.19;">X, Add </text>
</g>
<g id="node5" class="node"><title>NewMsgCrLf</title>
<ellipse cx="45" cy="76" rx="38" ry="11" style="fill:none;stroke:black;"/>
<text text-anchor="middle" x="45" y="80" style="font-family:Helvetica;">NewMsgCrLf</text>
</g>
<g id="edge4" class="edge"><title>NewMsg-&gt;NewMsgCrLf</title>
<path style="fill:none;stroke:black;" d="M58,27C50,30 41,35 35,44 33,48 33,54 35,59"/>
<polygon style="fill:black;stroke:black;" points="36,58 37,65 33,59 36,58"/>
<text text-anchor="middle" x="53" y="50" style="font-family:Helvetica;font-size:5.19;">CR, None </text>
</g>
<g id="edge10" class="edge"><title>StartLine-&gt;StartLine</title>
<path style="fill:none;stroke:black;" d="M160,85C171,86 181,83 181,76 181,70 175,68 167,68"/>
<polygon style="fill:black;stroke:black;" points="167,69 160,68 167,66 167,69"/>
<text text-anchor="middle" x="192" y="78" style="font-family:Helvetica;font-size:5.19;">X, Add</text>
</g>
<g id="node11" class="node"><title>StartLineCrLf</title>
<ellipse cx="142" cy="132" rx="38" ry="11" style="fill:none;stroke:black;"/>
<text text-anchor="middle" x="142" y="135" style="font-family:Helvetica;">StartLineCrLf</text>
</g>
<g id="edge12" class="edge"><title>StartLine-&gt;StartLineCrLf</title>
<path style="fill:none;stroke:black;" d="M142,88C142,96 142,105 142,114"/>
<polygon style="fill:black;stroke:black;" points="144,114 142,120 140,114 144,114"/>
<text text-anchor="middle" x="157" y="106" style="font-family:Helvetica;font-size:5.19;">CR, None</text>
</g>
<g id="edge8" class="edge"><title>NewMsgCrLf-&gt;NewMsg</title>
<path style="fill:none;stroke:black;" d="M77,37C76,43 74,48 70,53 67,57 63,62 59,65"/>
<polygon style="fill:black;stroke:black;" points="76,37 79,32 79,39 76,37"/>
<text text-anchor="middle" x="96" y="50" style="font-family:Helvetica;font-size:5.19;">LF, Discard </text>
</g>
<g id="node7" class="node"><title>EndMsg</title>
<ellipse cx="521" cy="578" rx="25" ry="11" style="fill:none;stroke:black;"/>
<text text-anchor="middle" x="521" y="581" style="font-family:Helvetica;">EndMsg</text>
</g>
<g id="edge6" class="edge"><title>NewMsgCrLf-&gt;EndMsg</title>
<path style="fill:none;stroke:black;" d="M45,88C45,100 45,117 45,132 45,132 45,132 45,522 45,568 381,576 488,578"/>
<polygon style="fill:black;stroke:black;" points="488,576 495,578 488,579 488,576"/>
<text text-anchor="middle" x="67" y="329" style="font-family:Helvetica;font-size:5.19;">X, Bad|Discard </text>
</g>
<g id="edge14" class="edge"><title>StartLineCrLf-&gt;EndMsg</title>
<path style="fill:none;stroke:black;" d="M130,143C120,153 107,170 107,188 107,188 107,188 107,522 107,561 391,573 489,577"/>
<polygon style="fill:black;stroke:black;" points="488,575 495,577 488,579 488,575"/>
<text text-anchor="middle" x="129" y="357" style="font-family:Helvetica;font-size:5.19;">X, Bad|Discard</text>
</g>
<g id="node14" class="node"><title>BuildHdr</title>
<ellipse cx="706" cy="188" rx="27" ry="11" style="fill:none;stroke:black;"/>
<text text-anchor="middle" x="706" y="191" style="font-family:Helvetica;">BuildHdr</text>
</g>
<g id="edge16" class="edge"><title>StartLineCrLf-&gt;BuildHdr</title>
<path style="fill:none;stroke:black;" d="M179,136C282,146 575,175 673,185"/>
<polygon style="fill:black;stroke:black;" points="673,183 679,185 673,186 673,183"/>
<text text-anchor="middle" x="487" y="162" style="font-family:Helvetica;font-size:5.19;">LF, Reset|Fline|Discard</text>
</g>
<g id="edge18" class="edge"><title>BuildHdr-&gt;BuildHdr</title>
<path style="fill:none;stroke:black;" d="M726,196C736,197 746,195 746,188 746,183 740,179 733,179"/>
<polygon style="fill:black;stroke:black;" points="732,181 726,179 732,177 732,181"/>
<text text-anchor="middle" x="757" y="190" style="font-family:Helvetica;font-size:5.19;">X, Add</text>
</g>
<g id="node17" class="node"><title>EWSPostHdr</title>
<ellipse cx="761" cy="244" rx="36" ry="11" style="fill:none;stroke:black;"/>
<text text-anchor="middle" x="761" y="247" style="font-family:Helvetica;">EWSPostHdr</text>
</g>
<g id="edge20" class="edge"><title>BuildHdr-&gt;EWSPostHdr</title>
<path style="fill:none;stroke:black;" d="M717,199C726,207 737,219 746,228"/>
<polygon style="fill:black;stroke:black;" points="747,227 750,232 745,229 747,227"/>
<text text-anchor="middle" x="754" y="218" style="font-family:Helvetica;font-size:5.19;">LWS, None</text>
</g>
<g id="node19" class="node"><title>EWSPostColon</title>
<ellipse cx="542" cy="299" rx="40" ry="11" style="fill:none;stroke:black;"/>
<text text-anchor="middle" x="542" y="302" style="font-family:Helvetica;">EWSPostColon</text>
</g>
<g id="edge22" class="edge"><title>BuildHdr-&gt;EWSPostColon</title>
<path style="fill:none;stroke:black;" d="M684,194C662,201 628,214 603,232 583,246 564,268 553,283"/>
<polygon style="fill:black;stroke:black;" points="555,284 549,288 553,282 555,284"/>
<text text-anchor="middle" x="652" y="245" style="font-family:Helvetica;font-size:5.19;">COLON, Hdr|Reset|DiscardKnown</text>
</g>
<g id="edge24" class="edge"><title>EWSPostHdr-&gt;EndMsg</title>
<path style="fill:none;stroke:black;" d="M792,250C817,257 848,272 848,299 848,299 848,299 848,522 848,576 667,575 614,577 603,577 576,578 554,578"/>
<polygon style="fill:black;stroke:black;" points="553,579 547,578 553,576 553,579"/>
<text text-anchor="middle" x="870" y="413" style="font-family:Helvetica;font-size:5.19;">X, Bad|Discard</text>
</g>
<g id="edge26" class="edge"><title>EWSPostHdr-&gt;EWSPostHdr</title>
<path style="fill:none;stroke:black;" d="M787,252C799,253 810,250 810,244 810,238 803,235 794,235"/>
<polygon style="fill:black;stroke:black;" points="793,236 787,235 793,233 793,236"/>
<text text-anchor="middle" x="827" y="245" style="font-family:Helvetica;font-size:5.19;">LWS, None</text>
</g>
<g id="edge28" class="edge"><title>EWSPostHdr-&gt;EWSPostColon</title>
<path style="fill:none;stroke:black;" d="M732,251C693,261 622,279 579,290"/>
<polygon style="fill:black;stroke:black;" points="579,291 572,291 578,288 579,291"/>
<text text-anchor="middle" x="717" y="273" style="font-family:Helvetica;font-size:5.19;">COLON, Hdr|Reset|DiscardKnown</text>
</g>
<g id="edge32" class="edge"><title>EWSPostColon-&gt;EWSPostColon</title>
<path style="fill:none;stroke:black;" d="M569,308C582,309 594,306 594,299 594,294 586,291 577,291"/>
<polygon style="fill:black;stroke:black;" points="576,292 569,291 576,289 576,292"/>
<text text-anchor="middle" x="632" y="301" style="font-family:Helvetica;font-size:5.19;">LWS, Reset|DiscardKnown</text>
</g>
<g id="node24" class="node"><title>BuildData</title>
<ellipse cx="351" cy="355" rx="29" ry="11" style="fill:none;stroke:black;"/>
<text text-anchor="middle" x="351" y="358" style="font-family:Helvetica;">BuildData</text>
</g>
<g id="edge30" class="edge"><title>EWSPostColon-&gt;BuildData</title>
<path style="fill:none;stroke:black;" d="M501,301C441,303 335,310 323,323 317,329 322,336 330,342"/>
<polygon style="fill:black;stroke:black;" points="330,340 334,345 328,343 330,340"/>
<text text-anchor="middle" x="335" y="329" style="font-family:Helvetica;font-size:5.19;">X, Add</text>
</g>
<g id="node27" class="node"><title>EmptyHdrCrLf</title>
<ellipse cx="779" cy="355" rx="42" ry="11" style="fill:none;stroke:black;"/>
<text text-anchor="middle" x="779" y="358" style="font-family:Helvetica;">EmptyHdrCrLf</text>
</g>
<g id="edge34" class="edge"><title>EWSPostColon-&gt;EmptyHdrCrLf</title>
<path style="fill:none;stroke:black;" d="M566,308C589,317 621,328 634,332 644,335 697,343 735,349"/>
<polygon style="fill:black;stroke:black;" points="735,347 741,349 735,350 735,347"/>
<text text-anchor="middle" x="669" y="329" style="font-family:Helvetica;font-size:5.19;">CR, Reset|DiscardKnown</text>
</g>
<g id="node36" class="node"><title>InAng</title>
<ellipse cx="404" cy="411" rx="21" ry="11" style="fill:none;stroke:black;"/>
<text text-anchor="middle" x="404" y="414" style="font-family:Helvetica;">InAng</text>
</g>
<g id="edge46" class="edge"><title>EWSPostColon-&gt;InAng</title>
<path style="fill:none;stroke:black;" d="M536,311C532,319 527,332 525,343 523,354 521,357 525,367 527,373 532,372 534,378 536,382 537,385 534,387 524,400 481,396 466,399 454,401 440,404 430,406"/>
<polygon style="fill:black;stroke:black;" points="431,408 424,407 431,404 431,408"/>
<text text-anchor="middle" x="568" y="357" style="font-family:Helvetica;font-size:5.19;">LAQUOT, Add  (dCommaSep)</text>
</g>
<g id="node38" class="node"><title>InQ</title>
<ellipse cx="182" cy="411" rx="17" ry="11" style="fill:none;stroke:black;"/>
<text text-anchor="middle" x="182" y="414" style="font-family:Helvetica;">InQ</text>
</g>
<g id="edge48" class="edge"><title>EWSPostColon-&gt;InQ</title>
<path style="fill:none;stroke:black;" d="M501,300C494,301 488,301 482,301 372,306 339,299 239,343 212,356 197,353 183,378 181,383 180,388 180,393"/>
<polygon style="fill:black;stroke:black;" points="182,393 180,399 179,393 182,393"/>
<text text-anchor="middle" x="281" y="357" style="font-family:Helvetica;font-size:5.19;">QUOT, Add  (dCommaSep)</text>
</g>
<g id="edge94" class="edge"><title>BuildData-&gt;EWSPostColon</title>
<path style="fill:none;stroke:black;" d="M497,303C450,308 380,315 370,323 363,328 358,336 355,343"/>
<polygon style="fill:black;stroke:black;" points="496,302 503,302 496,305 496,302"/>
<text text-anchor="middle" x="441" y="329" style="font-family:Helvetica;font-size:5.19;">COMMA, Data|Reset|DiscardKnown (dCommaSep)</text>
</g>
<g id="edge50" class="edge"><title>BuildData-&gt;BuildData</title>
<path style="fill:none;stroke:black;" d="M372,363C383,365 393,362 393,355 393,349 387,347 378,347"/>
<polygon style="fill:black;stroke:black;" points="378,348 372,347 378,345 378,348"/>
<text text-anchor="middle" x="404" y="357" style="font-family:Helvetica;font-size:5.19;">X, Add</text>
</g>
<g id="edge68" class="edge"><title>BuildData-&gt;InAng</title>
<path style="fill:none;stroke:black;" d="M370,364C377,368 384,372 389,378 393,383 396,388 398,393"/>
<polygon style="fill:black;stroke:black;" points="399,393 400,399 396,394 399,393"/>
<text text-anchor="middle" x="436" y="385" style="font-family:Helvetica;font-size:5.19;">LAQUOT, Add (dCommaSep)</text>
</g>
<g id="edge84" class="edge"><title>BuildData-&gt;InQ</title>
<path style="fill:none;stroke:black;" d="M322,358C284,363 195,374 191,378 186,382 184,387 183,393"/>
<polygon style="fill:black;stroke:black;" points="185,393 182,399 182,393 185,393"/>
<text text-anchor="middle" x="232" y="385" style="font-family:Helvetica;font-size:5.19;">QUOT, Add (dCommaSep)</text>
</g>
<g id="node41" class="node"><title>BuildDataCrLf</title>
<ellipse cx="514" cy="411" rx="41" ry="11" style="fill:none;stroke:black;"/>
<text text-anchor="middle" x="514" y="414" style="font-family:Helvetica;">BuildDataCrLf</text>
</g>
<g id="edge52" class="edge"><title>BuildData-&gt;BuildDataCrLf</title>
<path style="fill:none;stroke:black;" d="M380,358C422,363 439,357 480,378 488,382 495,389 501,395"/>
<polygon style="fill:black;stroke:black;" points="501,393 505,399 499,395 501,393"/>
<text text-anchor="middle" x="512" y="385" style="font-family:Helvetica;font-size:5.19;">CR, None|Flat</text>
</g>
<g id="edge36" class="edge"><title>EmptyHdrCrLf-&gt;EndMsg</title>
<path style="fill:none;stroke:black;" d="M782,367C785,378 788,396 788,411 788,411 788,411 788,522 788,575 610,570 553,576"/>
<polygon style="fill:black;stroke:black;" points="553,577 547,577 553,575 553,577"/>
<text text-anchor="middle" x="809" y="468" style="font-family:Helvetica;font-size:5.19;">X, Bad|Discard</text>
</g>
<g id="node30" class="node"><title>EmptyHdrCont</title>
<ellipse cx="708" cy="411" rx="42" ry="11" style="fill:none;stroke:black;"/>
<text text-anchor="middle" x="708" y="414" style="font-family:Helvetica;">EmptyHdrCont</text>
</g>
<g id="edge38" class="edge"><title>EmptyHdrCrLf-&gt;EmptyHdrCont</title>
<path style="fill:none;stroke:black;" d="M746,363C732,367 715,372 711,378 708,382 706,387 706,393"/>
<polygon style="fill:black;stroke:black;" points="708,393 706,399 704,393 708,393"/>
<text text-anchor="middle" x="744" y="385" style="font-family:Helvetica;font-size:5.19;">LF, Reset|DiscardKnown</text>
</g>
<g id="edge40" class="edge"><title>EmptyHdrCont-&gt;BuildHdr</title>
<path style="fill:none;stroke:black;" d="M739,192C789,199 878,215 878,244 878,244 878,244 878,355 878,383 796,399 746,406"/>
<polygon style="fill:black;stroke:black;" points="739,194 733,191 739,190 739,194"/>
<text text-anchor="middle" x="922" y="301" style="font-family:Helvetica;font-size:5.19;">X, Reset|Back|Discard|EmptyHdr</text>
</g>
<g id="edge42" class="edge"><title>EmptyHdrCont-&gt;EWSPostColon</title>
<path style="fill:none;stroke:black;" d="M564,312C579,321 597,332 614,343 650,368 662,378 692,400"/>
<polygon style="fill:black;stroke:black;" points="564,314 559,310 566,312 564,314"/>
<text text-anchor="middle" x="682" y="357" style="font-family:Helvetica;font-size:5.19;">LWS, Reset|DiscardKnown</text>
</g>
<g id="node34" class="node"><title>CheckEndHdr</title>
<ellipse cx="598" cy="522" rx="39" ry="11" style="fill:none;stroke:black;"/>
<text text-anchor="middle" x="598" y="525" style="font-family:Helvetica;">CheckEndHdr</text>
</g>
<g id="edge44" class="edge"><title>EmptyHdrCont-&gt;CheckEndHdr</title>
<path style="fill:none;stroke:black;" d="M700,422C695,431 687,444 681,455 669,475 672,485 655,499 649,505 641,509 634,512"/>
<polygon style="fill:black;stroke:black;" points="634,513 628,514 633,511 634,513"/>
<text text-anchor="middle" x="728" y="468" style="font-family:Helvetica;font-size:5.19;">CR,  Data|Reset|Discard|EmptyHdr</text>
</g>
<g id="edge64" class="edge"><title>CheckEndHdr-&gt;EndMsg</title>
<path style="fill:none;stroke:black;" d="M594,534C592,541 587,549 581,555 572,562 561,568 550,571"/>
<polygon style="fill:black;stroke:black;" points="551,572 544,573 550,569 551,572"/>
<text text-anchor="middle" x="610" y="552" style="font-family:Helvetica;font-size:5.19;">X, Bad|Discard</text>
</g>
<g id="edge66" class="edge"><title>CheckEndHdr-&gt;EndMsg</title>
<path style="fill:none;stroke:black;" d="M564,528C546,533 526,538 521,546 518,549 517,555 517,560"/>
<polygon style="fill:black;stroke:black;" points="518,560 518,566 516,560 518,560"/>
<text text-anchor="middle" x="551" y="552" style="font-family:Helvetica;font-size:5.19;">LF, EndHdrs|Discard</text>
</g>
<g id="edge72" class="edge"><title>InAng-&gt;BuildData</title>
<path style="fill:none;stroke:black;" d="M339,371C336,377 335,382 339,387 344,395 367,402 383,406"/>
<polygon style="fill:black;stroke:black;" points="337,371 342,366 341,372 337,371"/>
<text text-anchor="middle" x="362" y="385" style="font-family:Helvetica;font-size:5.19;">RAQUOT, Add</text>
</g>
<g id="edge70" class="edge"><title>InAng-&gt;InAng</title>
<path style="fill:none;stroke:black;" d="M419,419C428,420 437,418 437,411 437,406 432,403 426,402"/>
<polygon style="fill:black;stroke:black;" points="426,404 419,402 426,400 426,404"/>
<text text-anchor="middle" x="448" y="413" style="font-family:Helvetica;font-size:5.19;">X, Add</text>
</g>
<g id="node54" class="node"><title>InAngQ</title>
<ellipse cx="367" cy="466" rx="25" ry="11" style="fill:none;stroke:black;"/>
<text text-anchor="middle" x="367" y="470" style="font-family:Helvetica;">InAngQ</text>
</g>
<g id="edge74" class="edge"><title>InAng-&gt;InAngQ</title>
<path style="fill:none;stroke:black;" d="M385,417C377,420 369,426 364,434 361,439 361,444 361,449"/>
<polygon style="fill:black;stroke:black;" points="363,448 363,455 359,449 363,448"/>
<text text-anchor="middle" x="382" y="441" style="font-family:Helvetica;font-size:5.19;">QUOT, Add</text>
</g>
<g id="edge88" class="edge"><title>InQ-&gt;BuildData</title>
<path style="fill:none;stroke:black;" d="M319,363C302,371 293,379 269,387 245,396 216,403 199,407"/>
<polygon style="fill:black;stroke:black;" points="319,361 325,361 319,365 319,361"/>
<text text-anchor="middle" x="310" y="385" style="font-family:Helvetica;font-size:5.19;">QUOT, Add</text>
</g>
<g id="edge86" class="edge"><title>InQ-&gt;InQ</title>
<path style="fill:none;stroke:black;" d="M195,419C203,421 211,419 211,411 211,405 206,402 201,402"/>
<polygon style="fill:black;stroke:black;" points="201,404 195,403 201,401 201,404"/>
<text text-anchor="middle" x="223" y="413" style="font-family:Helvetica;font-size:5.19;">X, Add</text>
</g>
<g id="node64" class="node"><title>InQEsc</title>
<ellipse cx="184" cy="466" rx="23" ry="11" style="fill:none;stroke:black;"/>
<text text-anchor="middle" x="184" y="470" style="font-family:Helvetica;">InQEsc</text>
</g>
<g id="edge90" class="edge"><title>InQ-&gt;InQEsc</title>
<path style="fill:none;stroke:black;" d="M184,422C186,426 186,430 186,434 187,439 186,444 186,448"/>
<polygon style="fill:black;stroke:black;" points="188,448 186,455 185,448 188,448"/>
<text text-anchor="middle" x="208" y="441" style="font-family:Helvetica;font-size:5.19;">LSLASH, Add</text>
</g>
<g id="edge54" class="edge"><title>BuildDataCrLf-&gt;EndMsg</title>
<path style="fill:none;stroke:black;" d="M513,422C512,447 510,506 514,555 514,557 514,559 514,560"/>
<polygon style="fill:black;stroke:black;" points="516,560 513,566 512,560 516,560"/>
<text text-anchor="middle" x="533" y="496" style="font-family:Helvetica;font-size:5.19;">X, Bad|Discard</text>
</g>
<g id="node44" class="node"><title>CheckCont</title>
<ellipse cx="582" cy="466" rx="31" ry="11" style="fill:none;stroke:black;"/>
<text text-anchor="middle" x="582" y="470" style="font-family:Helvetica;">CheckCont</text>
</g>
<g id="edge56" class="edge"><title>BuildDataCrLf-&gt;CheckCont</title>
<path style="fill:none;stroke:black;" d="M518,422C520,430 524,437 530,443 536,449 544,454 552,457"/>
<polygon style="fill:black;stroke:black;" points="552,455 557,459 551,459 552,455"/>
<text text-anchor="middle" x="549" y="441" style="font-family:Helvetica;font-size:5.19;">LF, None|Flat</text>
</g>
<g id="edge58" class="edge"><title>CheckCont-&gt;BuildHdr</title>
<path style="fill:none;stroke:black;" d="M707,205C709,249 715,360 711,367 698,391 681,384 660,399 635,417 608,441 594,455"/>
<polygon style="fill:black;stroke:black;" points="706,206 707,199 709,206 706,206"/>
<text text-anchor="middle" x="748" y="329" style="font-family:Helvetica;font-size:5.19;">X, Data|Reset|Back|Discard</text>
</g>
<g id="edge60" class="edge"><title>CheckCont-&gt;BuildData</title>
<path style="fill:none;stroke:black;" d="M387,357C394,358 398,358 407,359 464,367 482,356 534,378 548,385 552,387 561,399 573,417 579,441 580,455"/>
<polygon style="fill:black;stroke:black;" points="387,358 381,356 387,356 387,358"/>
<text text-anchor="middle" x="588" y="413" style="font-family:Helvetica;font-size:5.19;">LWS, Add </text>
</g>
<g id="edge62" class="edge"><title>CheckCont-&gt;CheckEndHdr</title>
<path style="fill:none;stroke:black;" d="M586,478C588,486 591,496 593,505"/>
<polygon style="fill:black;stroke:black;" points="594,504 595,511 591,505 594,504"/>
<text text-anchor="middle" x="621" y="496" style="font-family:Helvetica;font-size:5.19;">CR, Data|Reset|Discard</text>
</g>
<g id="edge78" class="edge"><title>InAngQ-&gt;InAng</title>
<path style="fill:none;stroke:black;" d="M407,429C407,433 406,439 404,443 400,450 393,455 387,459"/>
<polygon style="fill:black;stroke:black;" points="405,429 406,422 408,429 405,429"/>
<text text-anchor="middle" x="424" y="441" style="font-family:Helvetica;font-size:5.19;">QUOT, Add</text>
</g>
<g id="edge76" class="edge"><title>InAngQ-&gt;InAngQ</title>
<path style="fill:none;stroke:black;" d="M385,475C395,476 404,474 404,466 404,461 399,458 393,458"/>
<polygon style="fill:black;stroke:black;" points="392,459 385,458 392,456 392,459"/>
<text text-anchor="middle" x="416" y="468" style="font-family:Helvetica;font-size:5.19;">X, Add</text>
</g>
<g id="node58" class="node"><title>InAngQEsc</title>
<ellipse cx="378" cy="522" rx="33" ry="11" style="fill:none;stroke:black;"/>
<text text-anchor="middle" x="378" y="525" style="font-family:Helvetica;">InAngQEsc</text>
</g>
<g id="edge80" class="edge"><title>InAngQ-&gt;InAngQEsc</title>
<path style="fill:none;stroke:black;" d="M375,478C378,481 380,486 381,490 381,494 382,500 381,504"/>
<polygon style="fill:black;stroke:black;" points="383,504 381,511 380,504 383,504"/>
<text text-anchor="middle" x="402" y="496" style="font-family:Helvetica;font-size:5.19;">LSLASH, Add</text>
</g>
<g id="edge82" class="edge"><title>InAngQEsc-&gt;InAngQ</title>
<path style="fill:none;stroke:black;" d="M354,483C352,488 350,494 352,499 354,504 358,508 362,512"/>
<polygon style="fill:black;stroke:black;" points="353,482 357,478 356,484 353,482"/>
<text text-anchor="middle" x="364" y="496" style="font-family:Helvetica;font-size:5.19;">X, Add</text>
</g>
<g id="edge92" class="edge"><title>InQEsc-&gt;InQ</title>
<path style="fill:none;stroke:black;" d="M166,424C161,430 157,437 160,443 162,448 166,453 170,457"/>
<polygon style="fill:black;stroke:black;" points="164,423 170,420 167,426 164,423"/>
<text text-anchor="middle" x="172" y="441" style="font-family:Helvetica;font-size:5.19;">X, Add</text>
</g>
</g></svg>
