<!-- Generated by dot version 1.7.14 (Mon Oct 21 18:19:04 MDT 2002)
     For user: (alan)    Title: pp_fsm    Pages: 1-->
<svg width="742px" height="581px" xmlns='http://www.w3.org/2000/svg' xmlns:xlink='http://www.w3.org/1999/xlink'>
<g id="pp_fsm" class="graph">
<g id="NewMsg" class="node">
<ellipse cx="650" cy="16" rx="23" ry="9" style="fill:none;stroke:black"/>
<text text-anchor="middle" x="650" y="19" style="font-family:Helvetica;font-size:7.75">NewMsg</text>
</g>
<g id="StartLine" class="node">
<ellipse cx="604" cy="71" rx="23" ry="9" style="fill:none;stroke:black"/>
<text text-anchor="middle" x="604" y="73" style="font-family:Helvetica;font-size:7.75">StartLine</text>
</g>
<g id="NewMsg-&gt;StartLine" class="edge">
<g style="fill:none;stroke:black"><path d="M637 25C631 29 625 34 621 40 616 45 613 51 610 56"/></g>
<polygon style="fill:black;stroke:black" points="609,55 608,61 612,56 609,55"/>
<text text-anchor="middle" x="629" y="45" style="font-family:Helvetica;font-size:4.43">*, Add </text>
</g>
<g id="NewMsgCrLf" class="node">
<ellipse cx="697" cy="71" rx="33" ry="9" style="fill:none;stroke:black"/>
<text text-anchor="middle" x="697" y="73" style="font-family:Helvetica;font-size:7.75">NewMsgCrLf</text>
</g>
<g id="NewMsg-&gt;NewMsgCrLf" class="edge">
<g style="fill:none;stroke:black"><path d="M662 25C668 29 675 34 680 40 683 45 687 51 691 56"/></g>
<polygon style="fill:black;stroke:black" points="689,56 693,61 692,55 689,56"/>
<text text-anchor="middle" x="694" y="45" style="font-family:Helvetica;font-size:4.43">CR, Nil </text>
</g>
<g id="StartLine-&gt;StartLine" class="edge">
<g style="fill:none;stroke:black"><path d="M620 78C629 79 638 77 638 71 638 66 633 63 626 63"/></g>
<polygon style="fill:black;stroke:black" points="626,62 620,63 626,64 626,62"/>
<text text-anchor="middle" x="646" y="72" style="font-family:Helvetica;font-size:4.43">*, Add</text>
</g>
<g id="StartLineCrLf" class="node">
<ellipse cx="604" cy="125" rx="33" ry="9" style="fill:none;stroke:black"/>
<text text-anchor="middle" x="604" y="128" style="font-family:Helvetica;font-size:7.75">StartLineCrLf</text>
</g>
<g id="StartLine-&gt;StartLineCrLf" class="edge">
<g style="fill:none;stroke:black"><path d="M604 81C604 89 604 100 604 110"/></g>
<polygon style="fill:black;stroke:black" points="603,109 604,115 606,109 603,109"/>
<text text-anchor="middle" x="614" y="99" style="font-family:Helvetica;font-size:4.43">CR, Nil</text>
</g>
<g id="NewMsgCrLf-&gt;NewMsg" class="edge">
<g style="fill:none;stroke:black"><path d="M647 30C646 36 646 42 650 47 654 56 663 61 671 64"/></g>
<polygon style="fill:black;stroke:black" points="649,32 647,26 646,32 649,32"/>
<text text-anchor="middle" x="664" y="45" style="font-family:Helvetica;font-size:4.43">LF, Discard </text>
</g>
<g id="EndMsg" class="node">
<ellipse cx="509" cy="559" rx="22" ry="9" style="fill:none;stroke:black"/>
<text text-anchor="middle" x="509" y="562" style="font-family:Helvetica;font-size:7.75">EndMsg</text>
</g>
<g id="NewMsgCrLf-&gt;EndMsg" class="edge">
<g style="fill:none;stroke:black"><path d="M697 81C697 95 697 121 697 125 697 125 697 125 697 505 697 551 654 551 608 557 604 558 565 559 537 559"/></g>
<polygon style="fill:black;stroke:black" points="537,557 531,559 537,560 537,557"/>
<text text-anchor="middle" x="714" y="316" style="font-family:Helvetica;font-size:4.43">*, Bad|Discard </text>
</g>
<g id="StartLineCrLf-&gt;EndMsg" class="edge">
<g style="fill:none;stroke:black"><path d="M615 134C628 147 649 169 649 179 649 179 649 179 649 505 649 561 590 547 536 556"/></g>
<polygon style="fill:black;stroke:black" points="536,554 531,557 536,557 536,554"/>
<text text-anchor="middle" x="666" y="343" style="font-family:Helvetica;font-size:4.43">*, Bad|Discard</text>
</g>
<g id="BuildHdr" class="node">
<ellipse cx="522" cy="179" rx="23" ry="9" style="fill:none;stroke:black"/>
<text text-anchor="middle" x="522" y="182" style="font-family:Helvetica;font-size:7.75">BuildHdr</text>
</g>
<g id="StartLineCrLf-&gt;BuildHdr" class="edge">
<g style="fill:none;stroke:black"><path d="M590 134C577 143 555 157 540 167"/></g>
<polygon style="fill:black;stroke:black" points="538,166 535,171 540,169 538,166"/>
<text text-anchor="middle" x="595" y="154" style="font-family:Helvetica;font-size:4.43">LF, Reset|Fline|Discard</text>
</g>
<g id="BuildHdr-&gt;BuildHdr" class="edge">
<g style="fill:none;stroke:black"><path d="M538 186C547 187 556 185 556 179 556 175 551 172 545 172"/></g>
<polygon style="fill:black;stroke:black" points="544,170 538,172 544,173 544,170"/>
<text text-anchor="middle" x="564" y="181" style="font-family:Helvetica;font-size:4.43">*, Add</text>
</g>
<g id="EWSPostHdr" class="node">
<ellipse cx="569" cy="233" rx="31" ry="9" style="fill:none;stroke:black"/>
<text text-anchor="middle" x="569" y="236" style="font-family:Helvetica;font-size:7.75">EWSPostHdr</text>
</g>
<g id="BuildHdr-&gt;EWSPostHdr" class="edge">
<g style="fill:none;stroke:black"><path d="M530 188C537 197 548 210 557 219"/></g>
<polygon style="fill:black;stroke:black" points="556,220 561,223 558,218 556,220"/>
<text text-anchor="middle" x="559" y="208" style="font-family:Helvetica;font-size:4.43">LWS, Nil</text>
</g>
<g id="EWSPostColon" class="node">
<ellipse cx="319" cy="288" rx="34" ry="9" style="fill:none;stroke:black"/>
<text text-anchor="middle" x="319" y="290" style="font-family:Helvetica;font-size:7.75">EWSPostColon</text>
</g>
<g id="BuildHdr-&gt;EWSPostColon" class="edge">
<g style="fill:none;stroke:black"><path d="M507 187C486 197 449 216 436 223 426 229 370 259 339 276"/></g>
<polygon style="fill:black;stroke:black" points="339,275 335,279 340,278 339,275"/>
<text text-anchor="middle" x="476" y="235" style="font-family:Helvetica;font-size:4.43">COLON, Hdr|Reset|DiscardKnown</text>
</g>
<g id="EWSPostHdr-&gt;EndMsg" class="edge">
<g style="fill:none;stroke:black"><path d="M575 243C584 258 600 285 600 288 600 288 600 288 600 505 600 509 553 535 527 550"/></g>
<polygon style="fill:black;stroke:black" points="528,548 524,551 529,550 528,548"/>
<text text-anchor="middle" x="617" y="398" style="font-family:Helvetica;font-size:4.43">*, Bad|Discard</text>
</g>
<g id="EWSPostHdr-&gt;EWSPostHdr" class="edge">
<g style="fill:none;stroke:black"><path d="M590 240C601 242 610 239 610 233 610 228 603 226 595 226"/></g>
<polygon style="fill:black;stroke:black" points="596,224 590,226 596,227 596,224"/>
<text text-anchor="middle" x="622" y="235" style="font-family:Helvetica;font-size:4.43">LWS, Nil</text>
</g>
<g id="EWSPostHdr-&gt;EWSPostColon" class="edge">
<g style="fill:none;stroke:black"><path d="M543 239C497 249 401 270 351 280"/></g>
<polygon style="fill:black;stroke:black" points="351,279 346,281 352,281 351,279"/>
<text text-anchor="middle" x="505" y="262" style="font-family:Helvetica;font-size:4.43">COLON, Hdr|Reset|DiscardKnown</text>
</g>
<g id="EWSPostColon-&gt;EWSPostColon" class="edge">
<g style="fill:none;stroke:black"><path d="M343 295C354 296 364 293 364 288 364 283 356 280 347 280"/></g>
<polygon style="fill:black;stroke:black" points="348,279 343,280 348,281 348,279"/>
<text text-anchor="middle" x="395" y="289" style="font-family:Helvetica;font-size:4.43">LWS, Reset|DiscardKnown</text>
</g>
<g id="BuildData" class="node">
<ellipse cx="334" cy="342" rx="25" ry="9" style="fill:none;stroke:black"/>
<text text-anchor="middle" x="334" y="345" style="font-family:Helvetica;font-size:7.75">BuildData</text>
</g>
<g id="EWSPostColon-&gt;BuildData" class="edge">
<g style="fill:none;stroke:black"><path d="M313 297C311 301 309 306 308 311 307 315 307 316 308 318 309 320 314 325 320 330"/></g>
<polygon style="fill:black;stroke:black" points="318,330 323,333 320,328 318,330"/>
<text text-anchor="middle" x="317" y="316" style="font-family:Helvetica;font-size:4.43">*, Add</text>
</g>
<g id="EmptyHdrCrLf" class="node">
<ellipse cx="155" cy="342" rx="36" ry="9" style="fill:none;stroke:black"/>
<text text-anchor="middle" x="155" y="345" style="font-family:Helvetica;font-size:7.75">EmptyHdrCrLf</text>
</g>
<g id="EWSPostColon-&gt;EmptyHdrCrLf" class="edge">
<g style="fill:none;stroke:black"><path d="M287 291C237 297 148 309 146 311 142 316 142 321 145 327"/></g>
<polygon style="fill:black;stroke:black" points="144,328 148,332 146,326 144,328"/>
<text text-anchor="middle" x="180" y="316" style="font-family:Helvetica;font-size:4.43">CR, Reset|DiscardKnown</text>
</g>
<g id="InAng" class="node">
<ellipse cx="484" cy="397" rx="18" ry="9" style="fill:none;stroke:black"/>
<text text-anchor="middle" x="484" y="399" style="font-family:Helvetica;font-size:7.75">InAng</text>
</g>
<g id="EWSPostColon-&gt;InAng" class="edge">
<g style="fill:none;stroke:black"><path d="M349 292C384 299 439 309 444 311 464 323 459 338 479 352 493 362 504 352 514 365 515 368 515 370 514 373 512 377 505 382 499 386"/></g>
<polygon style="fill:black;stroke:black" points="499,384 496,389 501,387 499,384"/>
<text text-anchor="middle" x="514" y="343" style="font-family:Helvetica;font-size:4.43">LAQUOT, Add  (dCommaSep)</text>
</g>
<g id="InQ" class="node">
<ellipse cx="201" cy="397" rx="14" ry="9" style="fill:none;stroke:black"/>
<text text-anchor="middle" x="201" y="399" style="font-family:Helvetica;font-size:7.75">InQ</text>
</g>
<g id="EWSPostColon-&gt;InQ" class="edge">
<g style="fill:none;stroke:black"><path d="M296 295C252 312 228 318 204 365 201 370 201 376 200 382"/></g>
<polygon style="fill:black;stroke:black" points="199,381 200,387 202,381 199,381"/>
<text text-anchor="middle" x="257" y="343" style="font-family:Helvetica;font-size:4.43">QUOT, Add  (dCommaSep)</text>
</g>
<g id="BuildData-&gt;EWSPostColon" class="edge">
<g style="fill:none;stroke:black"><path d="M324 301C325 304 327 307 327 311 329 318 331 326 332 332"/></g>
<polygon style="fill:black;stroke:black" points="326,302 323,297 323,303 326,302"/>
<text text-anchor="middle" x="385" y="316" style="font-family:Helvetica;font-size:4.43">COMMA,  Data|Reset|DiscardKnown (dCommaSep)</text>
</g>
<g id="BuildData-&gt;BuildData" class="edge">
<g style="fill:none;stroke:black"><path d="M352 349C361 350 370 348 370 342 370 337 364 334 356 335"/></g>
<polygon style="fill:black;stroke:black" points="357,333 352,335 357,336 357,333"/>
<text text-anchor="middle" x="378" y="343" style="font-family:Helvetica;font-size:4.43">*, Add</text>
</g>
<g id="BuildData-&gt;InAng" class="edge">
<g style="fill:none;stroke:black"><path d="M349 350C362 357 382 366 400 373 421 381 447 388 464 392"/></g>
<polygon style="fill:black;stroke:black" points="462,393 467,393 462,390 462,393"/>
<text text-anchor="middle" x="434" y="371" style="font-family:Helvetica;font-size:4.43">LAQUOT, Add (dCommaSep)</text>
</g>
<g id="BuildData-&gt;InQ" class="edge">
<g style="fill:none;stroke:black"><path d="M311 346C275 352 211 363 209 365 209 366 207 374 205 382"/></g>
<polygon style="fill:black;stroke:black" points="204,381 204,387 206,382 204,381"/>
<text text-anchor="middle" x="243" y="371" style="font-family:Helvetica;font-size:4.43">QUOT, Add (dCommaSep)</text>
</g>
<g id="BuildDataCrLf" class="node">
<ellipse cx="322" cy="397" rx="35" ry="9" style="fill:none;stroke:black"/>
<text text-anchor="middle" x="322" y="399" style="font-family:Helvetica;font-size:7.75">BuildDataCrLf</text>
</g>
<g id="BuildData-&gt;BuildDataCrLf" class="edge">
<g style="fill:none;stroke:black"><path d="M332 352C330 360 327 372 325 382"/></g>
<polygon style="fill:black;stroke:black" points="324,381 324,387 327,382 324,381"/>
<text text-anchor="middle" x="338" y="371" style="font-family:Helvetica;font-size:4.43">CR, Nil</text>
</g>
<g id="EmptyHdrCrLf-&gt;EndMsg" class="edge">
<g style="fill:none;stroke:black"><path d="M155 352C155 365 154 388 155 397 155 397 155 397 155 505 154 578 405 551 478 558 478 558 479 558 482 559"/></g>
<polygon style="fill:black;stroke:black" points="481,560 487,559 481,557 481,560"/>
<text text-anchor="middle" x="172" y="452" style="font-family:Helvetica;font-size:4.43">*, Bad|Discard</text>
</g>
<g id="EmptyHdrCont" class="node">
<ellipse cx="46" cy="397" rx="35" ry="9" style="fill:none;stroke:black"/>
<text text-anchor="middle" x="46" y="399" style="font-family:Helvetica;font-size:7.75">EmptyHdrCont</text>
</g>
<g id="EmptyHdrCrLf-&gt;EmptyHdrCont" class="edge">
<g style="fill:none;stroke:black"><path d="M130 349C118 353 103 358 90 365 80 371 70 378 62 384"/></g>
<polygon style="fill:black;stroke:black" points="62,383 58,387 64,385 62,383"/>
<text text-anchor="middle" x="121" y="371" style="font-family:Helvetica;font-size:4.43">LF, Reset|DiscardKnown</text>
</g>
<g id="EmptyHdrCont-&gt;BuildHdr" class="edge">
<g style="fill:none;stroke:black"><path d="M495 181C407 185 21 182 21 233 21 233 21 233 21 342 21 363 25 373 37 387"/></g>
<polygon style="fill:black;stroke:black" points="493,182 499,181 493,179 493,182"/>
<text text-anchor="middle" x="45" y="289" style="font-family:Helvetica;font-size:4.43">*, Reset|Back|Discard</text>
</g>
<g id="EmptyHdrCont-&gt;EWSPostColon" class="edge">
<g style="fill:none;stroke:black"><path d="M281 289C224 294 85 293 51 332 39 347 41 373 44 387"/></g>
<polygon style="fill:black;stroke:black" points="279,291 284,289 278,288 279,291"/>
<text text-anchor="middle" x="84" y="343" style="font-family:Helvetica;font-size:4.43">LWS, Reset|DiscardKnown</text>
</g>
<g id="InAng-&gt;BuildData" class="edge">
<g style="fill:none;stroke:black"><path d="M365 344C399 346 454 352 471 365 471 366 476 378 480 387"/></g>
<polygon style="fill:black;stroke:black" points="365,343 360,343 365,346 365,343"/>
<text text-anchor="middle" x="493" y="371" style="font-family:Helvetica;font-size:4.43">RAQUOT, Add</text>
</g>
<g id="InAng-&gt;InAng" class="edge">
<g style="fill:none;stroke:black"><path d="M498 404C505 405 512 403 512 397 512 392 509 390 503 389"/></g>
<polygon style="fill:black;stroke:black" points="503,388 498,389 503,390 503,388"/>
<text text-anchor="middle" x="521" y="398" style="font-family:Helvetica;font-size:4.43">*, Add</text>
</g>
<g id="InAngQ" class="node">
<ellipse cx="525" cy="451" rx="21" ry="9" style="fill:none;stroke:black"/>
<text text-anchor="middle" x="525" y="454" style="font-family:Helvetica;font-size:7.75">InAngQ</text>
</g>
<g id="InAng-&gt;InAngQ" class="edge">
<g style="fill:none;stroke:black"><path d="M491 406C498 415 507 428 515 437"/></g>
<polygon style="fill:black;stroke:black" points="514,438 518,441 515,436 514,438"/>
<text text-anchor="middle" x="521" y="425" style="font-family:Helvetica;font-size:4.43">QUOT, Add</text>
</g>
<g id="InQ-&gt;BuildData" class="edge">
<g style="fill:none;stroke:black"><path d="M314 352C296 361 272 373 272 373 253 381 230 388 215 393"/></g>
<polygon style="fill:black;stroke:black" points="314,353 318,349 313,351 314,353"/>
<text text-anchor="middle" x="304" y="371" style="font-family:Helvetica;font-size:4.43">QUOT, Add</text>
</g>
<g id="InQ-&gt;InQ" class="edge">
<g style="fill:none;stroke:black"><path d="M212 403C220 405 226 403 226 397 226 392 222 389 218 389"/></g>
<polygon style="fill:black;stroke:black" points="218,388 212,390 218,390 218,388"/>
<text text-anchor="middle" x="235" y="398" style="font-family:Helvetica;font-size:4.43">*, Add</text>
</g>
<g id="InQEsc" class="node">
<ellipse cx="232" cy="451" rx="19" ry="9" style="fill:none;stroke:black"/>
<text text-anchor="middle" x="232" y="454" style="font-family:Helvetica;font-size:7.75">InQEsc</text>
</g>
<g id="InQ-&gt;InQEsc" class="edge">
<g style="fill:none;stroke:black"><path d="M198 406C196 413 195 421 199 428 201 433 207 438 212 441"/></g>
<polygon style="fill:black;stroke:black" points="211,442 217,444 213,440 211,442"/>
<text text-anchor="middle" x="216" y="425" style="font-family:Helvetica;font-size:4.43">LSLASH, Add</text>
</g>
<g id="BuildDataCrLf-&gt;EndMsg" class="edge">
<g style="fill:none;stroke:black"><path d="M327 406C332 415 338 427 339 428 364 468 367 482 402 515 425 538 432 547 463 554 471 556 474 557 482 558"/></g>
<polygon style="fill:black;stroke:black" points="481,559 487,559 481,556 481,559"/>
<text text-anchor="middle" x="387" y="480" style="font-family:Helvetica;font-size:4.43">*, Bad|Discard</text>
</g>
<g id="CheckCont" class="node">
<ellipse cx="409" cy="451" rx="27" ry="9" style="fill:none;stroke:black"/>
<text text-anchor="middle" x="409" y="454" style="font-family:Helvetica;font-size:7.75">CheckCont</text>
</g>
<g id="BuildDataCrLf-&gt;CheckCont" class="edge">
<g style="fill:none;stroke:black"><path d="M330 406C338 415 348 426 351 428 353 429 370 436 386 442"/></g>
<polygon style="fill:black;stroke:black" points="385,443 390,444 386,440 385,443"/>
<text text-anchor="middle" x="360" y="425" style="font-family:Helvetica;font-size:4.43">LF, Nil</text>
</g>
<g id="CheckCont-&gt;BuildHdr" class="edge">
<g style="fill:none;stroke:black"><path d="M520 192C516 219 513 277 535 318 538 327 546 324 550 332 553 340 551 343 550 352 546 377 543 383 534 406 530 416 532 421 524 428 517 433 466 442 434 447"/></g>
<polygon style="fill:black;stroke:black" points="521,195 520,189 518,194 521,195"/>
<text text-anchor="middle" x="564" y="316" style="font-family:Helvetica;font-size:4.43">*, Data|Reset|Back|Discard</text>
</g>
<g id="CheckCont-&gt;BuildData" class="edge">
<g style="fill:none;stroke:black"><path d="M343 354C358 377 388 421 402 441"/></g>
<polygon style="fill:black;stroke:black" points="345,354 341,351 343,356 345,354"/>
<text text-anchor="middle" x="391" y="398" style="font-family:Helvetica;font-size:4.43">LWS, Add </text>
</g>
<g id="CheckEndHdr" class="node">
<ellipse cx="441" cy="505" rx="33" ry="9" style="fill:none;stroke:black"/>
<text text-anchor="middle" x="441" y="508" style="font-family:Helvetica;font-size:7.75">CheckEndHdr</text>
</g>
<g id="CheckCont-&gt;CheckEndHdr" class="edge">
<g style="fill:none;stroke:black"><path d="M415 461C420 469 427 481 432 491"/></g>
<polygon style="fill:black;stroke:black" points="431,491 435,495 433,490 431,491"/>
<text text-anchor="middle" x="452" y="480" style="font-family:Helvetica;font-size:4.43">CR, Data|Reset|Discard</text>
</g>
<g id="CheckEndHdr-&gt;EndMsg" class="edge">
<g style="fill:none;stroke:black"><path d="M462 513C473 518 486 524 491 528 493 530 498 538 502 545"/></g>
<polygon style="fill:black;stroke:black" points="500,545 504,549 502,544 500,545"/>
<text text-anchor="middle" x="511" y="534" style="font-family:Helvetica;font-size:4.43">*, Bad|Discard</text>
</g>
<g id="CheckEndHdr-&gt;EndMsg" class="edge">
<g style="fill:none;stroke:black"><path d="M441 515C441 524 441 536 441 536 453 555 467 553 484 555"/></g>
<polygon style="fill:black;stroke:black" points="483,556 488,556 483,554 483,556"/>
<text text-anchor="middle" x="465" y="534" style="font-family:Helvetica;font-size:4.43">LF, EndHdrs|Discard</text>
</g>
<g id="InAngQ-&gt;InAng" class="edge">
<g style="fill:none;stroke:black"><path d="M507 400C519 403 532 409 538 420 540 423 539 424 538 428 538 429 534 436 531 441"/></g>
<polygon style="fill:black;stroke:black" points="507,399 502,399 507,402 507,399"/>
<text text-anchor="middle" x="554" y="425" style="font-family:Helvetica;font-size:4.43">QUOT, Add</text>
</g>
<g id="InAngQ-&gt;InAngQ" class="edge">
<g style="fill:none;stroke:black"><path d="M541 458C549 459 557 457 557 451 557 446 552 444 547 444"/></g>
<polygon style="fill:black;stroke:black" points="546,442 541,444 546,445 546,442"/>
<text text-anchor="middle" x="565" y="452" style="font-family:Helvetica;font-size:4.43">*, Add</text>
</g>
<g id="InAngQEsc" class="node">
<ellipse cx="532" cy="505" rx="28" ry="9" style="fill:none;stroke:black"/>
<text text-anchor="middle" x="532" y="508" style="font-family:Helvetica;font-size:7.75">InAngQEsc</text>
</g>
<g id="InAngQ-&gt;InAngQEsc" class="edge">
<g style="fill:none;stroke:black"><path d="M521 461C519 466 516 473 516 474 515 478 515 479 516 482 517 485 519 488 520 491"/></g>
<polygon style="fill:black;stroke:black" points="519,492 524,496 521,490 519,492"/>
<text text-anchor="middle" x="533" y="480" style="font-family:Helvetica;font-size:4.43">LSLASH, Add</text>
</g>
<g id="InAngQEsc-&gt;InAngQ" class="edge">
<g style="fill:none;stroke:black"><path d="M540 462C546 466 551 471 553 474 554 477 554 479 553 482 551 487 547 492 543 496"/></g>
<polygon style="fill:black;stroke:black" points="542,461 537,459 540,463 542,461"/>
<text text-anchor="middle" x="562" y="480" style="font-family:Helvetica;font-size:4.43">*, Add</text>
</g>
<g id="InQEsc-&gt;InQ" class="edge">
<g style="fill:none;stroke:black"><path d="M219 404C225 408 232 413 236 420 237 424 236 433 234 441"/></g>
<polygon style="fill:black;stroke:black" points="220,403 214,402 219,405 220,403"/>
<text text-anchor="middle" x="244" y="425" style="font-family:Helvetica;font-size:4.43">*, Add</text>
</g>
</g>
</svg>
