<!-- Generated by dot version 1.7.14 (Mon Oct 21 18:19:04 MDT 2002)
     For user: (alan)    Title: pp_fsm    Pages: 1-->
<svg width="598px" height="719px" xmlns='http://www.w3.org/2000/svg' xmlns:xlink='http://www.w3.org/1999/xlink'>
<g id="pp_fsm" class="graph">
<g id="NewMsg" class="node">
<ellipse cx="27" cy="574" rx="11" ry="27" style="fill:none;stroke:black"/>
<text text-anchor="middle" transform="rotate(-90 30 574)" x="30" y="574" style="font-family:Helvetica;font-size:8.83">NewMsg</text>
</g>
<g id="StartLine" class="node">
<ellipse cx="81" cy="461" rx="11" ry="26" style="fill:none;stroke:black"/>
<text text-anchor="middle" transform="rotate(-90 84 461)" x="84" y="461" style="font-family:Helvetica;font-size:8.83">StartLine</text>
</g>
<g id="NewMsg-&gt;StartLine" class="edge">
<g style="fill:none;stroke:black"><path d="M36 556C45 536 60 504 71 483"/></g>
<polygon style="fill:black;stroke:black" points="72,485 73,478 69,483 72,485"/>
<text text-anchor="middle" transform="rotate(-90 56 497)" x="56" y="497" style="font-family:Helvetica;font-size:5.05">*, actAdd </text>
</g>
<g id="NewMsgCrLf" class="node">
<ellipse cx="81" cy="632" rx="11" ry="37" style="fill:none;stroke:black"/>
<text text-anchor="middle" transform="rotate(-90 84 632)" x="84" y="632" style="font-family:Helvetica;font-size:8.83">NewMsgCrLf</text>
</g>
<g id="NewMsg-&gt;NewMsgCrLf" class="edge">
<g style="fill:none;stroke:black"><path d="M38 583C46 591 58 600 58 601 62 604 64 608 67 611"/></g>
<polygon style="fill:black;stroke:black" points="65,611 70,616 68,610 65,611"/>
<text text-anchor="middle" transform="rotate(-90 56 577)" x="56" y="577" style="font-family:Helvetica;font-size:5.05">CR, actNil </text>
</g>
<g id="StartLine-&gt;StartLine" class="edge">
<g style="fill:none;stroke:black"><path d="M89 442C91 432 88 423 81 423 76 423 73 428 73 435"/></g>
<polygon style="fill:black;stroke:black" points="71,436 73,442 74,436 71,436"/>
<text text-anchor="middle" transform="rotate(-90 83 410)" x="83" y="410" style="font-family:Helvetica;font-size:5.05">*, actAdd</text>
</g>
<g id="StartLineCrLf" class="node">
<ellipse cx="135" cy="298" rx="11" ry="37" style="fill:none;stroke:black"/>
<text text-anchor="middle" transform="rotate(-90 139 298)" x="139" y="298" style="font-family:Helvetica;font-size:8.83">StartLineCrLf</text>
</g>
<g id="StartLine-&gt;StartLineCrLf" class="edge">
<g style="fill:none;stroke:black"><path d="M88 440C98 411 115 361 126 328"/></g>
<polygon style="fill:black;stroke:black" points="127,330 127,324 124,329 127,330"/>
<text text-anchor="middle" transform="rotate(-90 110 356)" x="110" y="356" style="font-family:Helvetica;font-size:5.05">CR, actNil</text>
</g>
<g id="NewMsgCrLf-&gt;NewMsg" class="edge">
<g style="fill:none;stroke:black"><path d="M33 604C34 615 38 623 50 632 53 633 62 633 70 633"/></g>
<polygon style="fill:black;stroke:black" points="34,605 32,599 31,605 34,605"/>
<text text-anchor="middle" transform="rotate(-90 56 616)" x="56" y="616" style="font-family:Helvetica;font-size:5.05">LF, actNil </text>
</g>
<g id="EndMsg" class="node">
<ellipse cx="569" cy="311" rx="11" ry="25" style="fill:none;stroke:black"/>
<text text-anchor="middle" transform="rotate(-90 573 311)" x="573" y="311" style="font-family:Helvetica;font-size:8.83">EndMsg</text>
</g>
<g id="NewMsgCrLf-&gt;EndMsg" class="edge">
<g style="fill:none;stroke:black"><path d="M92 647C106 668 132 704 135 704 135 704 135 704 515 704 587 704 559 457 567 385 568 377 569 358 569 341"/></g>
<polygon style="fill:black;stroke:black" points="570,343 569,336 567,343 570,343"/>
<text text-anchor="middle" transform="rotate(-90 327 692)" x="327" y="692" style="font-family:Helvetica;font-size:5.05">*, actBad</text>
</g>
<g id="StartLineCrLf-&gt;EndMsg" class="edge">
<g style="fill:none;stroke:black"><path d="M141 266C154 193 184 28 190 27 190 27 190 27 515 27 534 28 523 50 527 68 549 162 557 186 568 280"/></g>
<polygon style="fill:black;stroke:black" points="567,280 569,286 569,280 567,280"/>
<text text-anchor="middle" transform="rotate(-90 354 15)" x="354" y="15" style="font-family:Helvetica;font-size:5.05">*, actBad</text>
</g>
<g id="BuildHdr" class="node">
<ellipse cx="190" cy="298" rx="11" ry="27" style="fill:none;stroke:black"/>
<text text-anchor="middle" transform="rotate(-90 193 298)" x="193" y="298" style="font-family:Helvetica;font-size:8.83">BuildHdr</text>
</g>
<g id="StartLineCrLf-&gt;BuildHdr" class="edge">
<g style="fill:none;stroke:black"><path d="M147 298C154 298 164 298 172 298"/></g>
<polygon style="fill:black;stroke:black" points="172,300 178,298 172,297 172,300"/>
<text text-anchor="middle" transform="rotate(-90 164 272)" x="164" y="272" style="font-family:Helvetica;font-size:5.05">LF, actReset | actFline</text>
</g>
<g id="BuildHdr-&gt;BuildHdr" class="edge">
<g style="fill:none;stroke:black"><path d="M198 280C199 269 197 260 190 260 185 260 181 266 181 273"/></g>
<polygon style="fill:black;stroke:black" points="180,273 181,280 183,273 180,273"/>
<text text-anchor="middle" transform="rotate(-90 192 247)" x="192" y="247" style="font-family:Helvetica;font-size:5.05">*, actAdd</text>
</g>
<g id="EWSPostHdr" class="node">
<ellipse cx="244" cy="169" rx="11" ry="35" style="fill:none;stroke:black"/>
<text text-anchor="middle" transform="rotate(-90 247 169)" x="247" y="169" style="font-family:Helvetica;font-size:8.83">EWSPostHdr</text>
</g>
<g id="BuildHdr-&gt;EWSPostHdr" class="edge">
<g style="fill:none;stroke:black"><path d="M198 279C207 257 222 220 233 196"/></g>
<polygon style="fill:black;stroke:black" points="234,197 235,191 231,196 234,197"/>
<text text-anchor="middle" transform="rotate(-90 219 210)" x="219" y="210" style="font-family:Helvetica;font-size:5.05">LWS, actNil</text>
</g>
<g id="EWSPostColon" class="node">
<ellipse cx="298" cy="261" rx="11" ry="39" style="fill:none;stroke:black"/>
<text text-anchor="middle" transform="rotate(-90 301 261)" x="301" y="261" style="font-family:Helvetica;font-size:8.83">EWSPostColon</text>
</g>
<g id="BuildHdr-&gt;EWSPostColon" class="edge">
<g style="fill:none;stroke:black"><path d="M201 295C214 290 236 283 255 276 264 273 274 269 282 267"/></g>
<polygon style="fill:black;stroke:black" points="282,269 287,265 281,266 282,269"/>
<text text-anchor="middle" transform="rotate(-90 246 243)" x="246" y="243" style="font-family:Helvetica;font-size:5.05">COLON, actHdr | actReset</text>
</g>
<g id="EWSPostHdr-&gt;EndMsg" class="edge">
<g style="fill:none;stroke:black"><path d="M249 137C256 110 270 77 298 76 298 76 298 76 515 76 521 77 551 220 564 282"/></g>
<polygon style="fill:black;stroke:black" points="562,282 565,288 565,281 562,282"/>
<text text-anchor="middle" transform="rotate(-90 409 64)" x="409" y="64" style="font-family:Helvetica;font-size:5.05">*, actBad</text>
</g>
<g id="EWSPostHdr-&gt;EWSPostHdr" class="edge">
<g style="fill:none;stroke:black"><path d="M252 144C253 132 250 121 244 121 238 121 236 129 236 139"/></g>
<polygon style="fill:black;stroke:black" points="234,138 236,144 237,138 234,138"/>
<text text-anchor="middle" transform="rotate(-90 246 104)" x="246" y="104" style="font-family:Helvetica;font-size:5.05">LWS, actNil</text>
</g>
<g id="EWSPostHdr-&gt;EWSPostColon" class="edge">
<g style="fill:none;stroke:black"><path d="M254 186C262 200 275 222 285 238"/></g>
<polygon style="fill:black;stroke:black" points="284,239 288,243 286,237 284,239"/>
<text text-anchor="middle" transform="rotate(-90 273 174)" x="273" y="174" style="font-family:Helvetica;font-size:5.05">COLON, actHdr | actReset</text>
</g>
<g id="EWSPostColon-&gt;EWSPostColon" class="edge">
<g style="fill:none;stroke:black"><path d="M306 234C308 221 304 210 298 210 293 210 289 218 290 228"/></g>
<polygon style="fill:black;stroke:black" points="288,227 290,234 291,227 288,227"/>
<text text-anchor="middle" transform="rotate(-90 300 190)" x="300" y="190" style="font-family:Helvetica;font-size:5.05">LWS, actReset </text>
</g>
<g id="BuildData" class="node">
<ellipse cx="352" cy="394" rx="11" ry="29" style="fill:none;stroke:black"/>
<text text-anchor="middle" transform="rotate(-90 356 394)" x="356" y="394" style="font-family:Helvetica;font-size:8.83">BuildData</text>
</g>
<g id="EWSPostColon-&gt;BuildData" class="edge">
<g style="fill:none;stroke:black"><path d="M310 269C317 276 327 286 330 290 334 297 341 334 346 362"/></g>
<polygon style="fill:black;stroke:black" points="344,362 347,367 347,361 344,362"/>
<text text-anchor="middle" transform="rotate(-90 327 267)" x="327" y="267" style="font-family:Helvetica;font-size:5.05">*, actAdd</text>
</g>
<g id="InAng" class="node">
<ellipse cx="407" cy="182" rx="11" ry="20" style="fill:none;stroke:black"/>
<text text-anchor="middle" transform="rotate(-90 410 182)" x="410" y="182" style="font-family:Helvetica;font-size:8.83">InAng</text>
</g>
<g id="EWSPostColon-&gt;InAng" class="edge">
<g style="fill:none;stroke:black"><path d="M309 249C323 232 349 201 364 170 371 156 362 145 375 135 387 128 395 142 400 158"/></g>
<polygon style="fill:black;stroke:black" points="398,158 402,163 402,157 398,158"/>
<text text-anchor="middle" transform="rotate(-90 354 128)" x="354" y="128" style="font-family:Helvetica;font-size:5.05">LAQUOT, actAdd  (dCommaSep)</text>
</g>
<g id="InQ" class="node">
<ellipse cx="407" cy="591" rx="11" ry="17" style="fill:none;stroke:black"/>
<text text-anchor="middle" transform="rotate(-90 410 591)" x="410" y="591" style="font-family:Helvetica;font-size:8.83">InQ</text>
</g>
<g id="EWSPostColon-&gt;InQ" class="edge">
<g style="fill:none;stroke:black"><path d="M299 300C299 302 299 302 299 304 306 395 309 420 341 505 353 536 353 547 375 571 380 576 385 580 391 583"/></g>
<polygon style="fill:black;stroke:black" points="390,584 396,586 392,582 390,584"/>
<text text-anchor="middle" transform="rotate(-90 354 463)" x="354" y="463" style="font-family:Helvetica;font-size:5.05">QUOT, actAdd  (dCommaSep)</text>
</g>
<g id="BuildData-&gt;EWSPostColon" class="edge">
<g style="fill:none;stroke:black"><path d="M302 304C303 339 305 386 321 399 327 404 335 402 341 399"/></g>
<polygon style="fill:black;stroke:black" points="303,305 302,298 300,305 303,305"/>
<text text-anchor="middle" transform="rotate(-90 327 346)" x="327" y="346" style="font-family:Helvetica;font-size:5.05">COMMA,  actData|actReset (dCommaSep)</text>
</g>
<g id="BuildData-&gt;BuildData" class="edge">
<g style="fill:none;stroke:black"><path d="M361 374C362 363 359 353 352 353 347 353 344 360 344 369"/></g>
<polygon style="fill:black;stroke:black" points="342,367 344,374 346,367 342,367"/>
<text text-anchor="middle" transform="rotate(-90 354 340)" x="354" y="340" style="font-family:Helvetica;font-size:5.05">*, actAdd</text>
</g>
<g id="BuildData-&gt;InAng" class="edge">
<g style="fill:none;stroke:black"><path d="M357 367C365 333 374 322 384 281 388 268 396 232 401 207"/></g>
<polygon style="fill:black;stroke:black" points="402,208 402,202 399,208 402,208"/>
<text text-anchor="middle" transform="rotate(-90 381 239)" x="381" y="239" style="font-family:Helvetica;font-size:5.05">LAQUOT, actAdd (dCommaSep)</text>
</g>
<g id="BuildData-&gt;InQ" class="edge">
<g style="fill:none;stroke:black"><path d="M356 422C361 466 373 551 375 557 378 561 385 570 392 577"/></g>
<polygon style="fill:black;stroke:black" points="392,579 397,582 394,576 392,579"/>
<text text-anchor="middle" transform="rotate(-90 381 512)" x="381" y="512" style="font-family:Helvetica;font-size:5.05">QUOT, actAdd (dCommaSep)</text>
</g>
<g id="BuildDataCrLf" class="node">
<ellipse cx="407" cy="298" rx="11" ry="40" style="fill:none;stroke:black"/>
<text text-anchor="middle" transform="rotate(-90 410 298)" x="410" y="298" style="font-family:Helvetica;font-size:8.83">BuildDataCrLf</text>
</g>
<g id="BuildData-&gt;BuildDataCrLf" class="edge">
<g style="fill:none;stroke:black"><path d="M363 380C371 369 381 355 384 349 385 348 390 337 395 325"/></g>
<polygon style="fill:black;stroke:black" points="396,326 397,320 393,325 396,326"/>
<text text-anchor="middle" transform="rotate(-90 381 334)" x="381" y="334" style="font-family:Helvetica;font-size:5.05">CR, actNil</text>
</g>
<g id="InAng-&gt;BuildData" class="edge">
<g style="fill:none;stroke:black"><path d="M354 359C357 316 353 222 375 194 380 188 388 185 395 184"/></g>
<polygon style="fill:black;stroke:black" points="353,358 354,365 356,358 353,358"/>
<text text-anchor="middle" transform="rotate(-90 381 163)" x="381" y="163" style="font-family:Helvetica;font-size:5.05">RAQUOT, actAdd</text>
</g>
<g id="InAng-&gt;InAng" class="edge">
<g style="fill:none;stroke:black"><path d="M415 167C416 158 414 150 407 150 402 150 399 155 398 161"/></g>
<polygon style="fill:black;stroke:black" points="397,161 398,167 400,161 397,161"/>
<text text-anchor="middle" transform="rotate(-90 409 137)" x="409" y="137" style="font-family:Helvetica;font-size:5.05">*, actAdd</text>
</g>
<g id="InAngQ" class="node">
<ellipse cx="461" cy="191" rx="11" ry="24" style="fill:none;stroke:black"/>
<text text-anchor="middle" transform="rotate(-90 464 191)" x="464" y="191" style="font-family:Helvetica;font-size:8.83">InAngQ</text>
</g>
<g id="InAng-&gt;InAngQ" class="edge">
<g style="fill:none;stroke:black"><path d="M415 198C419 206 426 215 429 217 433 219 435 219 438 217 442 215 445 213 448 211"/></g>
<polygon style="fill:black;stroke:black" points="448,212 451,206 446,210 448,212"/>
<text text-anchor="middle" transform="rotate(-90 436 196)" x="436" y="196" style="font-family:Helvetica;font-size:5.05">QUOT, actAdd</text>
</g>
<g id="InQ-&gt;BuildData" class="edge">
<g style="fill:none;stroke:black"><path d="M363 418C370 439 381 466 384 478 397 521 399 532 405 574"/></g>
<polygon style="fill:black;stroke:black" points="364,419 361,414 362,420 364,419"/>
<text text-anchor="middle" transform="rotate(-90 381 430)" x="381" y="430" style="font-family:Helvetica;font-size:5.05">QUOT, actAdd</text>
</g>
<g id="InQ-&gt;InQ" class="edge">
<g style="fill:none;stroke:black"><path d="M414 579C417 570 414 563 407 563 401 563 398 567 398 572"/></g>
<polygon style="fill:black;stroke:black" points="397,572 399,579 400,572 397,572"/>
<text text-anchor="middle" transform="rotate(-90 409 550)" x="409" y="550" style="font-family:Helvetica;font-size:5.05">*, actAdd</text>
</g>
<g id="InQEsc" class="node">
<ellipse cx="461" cy="624" rx="11" ry="22" style="fill:none;stroke:black"/>
<text text-anchor="middle" transform="rotate(-90 464 624)" x="464" y="624" style="font-family:Helvetica;font-size:8.83">InQEsc</text>
</g>
<g id="InQ-&gt;InQEsc" class="edge">
<g style="fill:none;stroke:black"><path d="M412 606C418 624 428 650 429 652 436 656 443 651 449 645"/></g>
<polygon style="fill:black;stroke:black" points="450,645 453,640 448,644 450,645"/>
<text text-anchor="middle" transform="rotate(-90 436 625)" x="436" y="625" style="font-family:Helvetica;font-size:5.05">LSLASH, actAdd</text>
</g>
<g id="BuildDataCrLf-&gt;EndMsg" class="edge">
<g style="fill:none;stroke:black"><path d="M418 298C446 301 518 307 552 309"/></g>
<polygon style="fill:black;stroke:black" points="552,310 558,310 552,308 552,310"/>
<text text-anchor="middle" transform="rotate(-90 490 292)" x="490" y="292" style="font-family:Helvetica;font-size:5.05">*, actBad</text>
</g>
<g id="CheckCont" class="node">
<ellipse cx="461" cy="399" rx="11" ry="30" style="fill:none;stroke:black"/>
<text text-anchor="middle" transform="rotate(-90 464 399)" x="464" y="399" style="font-family:Helvetica;font-size:8.83">CheckCont</text>
</g>
<g id="BuildDataCrLf-&gt;CheckCont" class="edge">
<g style="fill:none;stroke:black"><path d="M417 317C426 333 439 357 448 375"/></g>
<polygon style="fill:black;stroke:black" points="447,376 451,381 450,375 447,376"/>
<text text-anchor="middle" transform="rotate(-90 436 326)" x="436" y="326" style="font-family:Helvetica;font-size:5.05">LF, actNil</text>
</g>
<g id="CheckCont-&gt;BuildHdr" class="edge">
<g style="fill:none;stroke:black"><path d="M191 331C197 416 213 640 244 640 244 640 244 640 352 640 384 640 398 638 418 614 420 612 445 484 456 427"/></g>
<polygon style="fill:black;stroke:black" points="192,332 191,326 189,332 192,332"/>
<text text-anchor="middle" transform="rotate(-90 327 606)" x="327" y="606" style="font-family:Helvetica;font-size:5.05">*, actData|actReset|actBack </text>
</g>
<g id="CheckCont-&gt;BuildData" class="edge">
<g style="fill:none;stroke:black"><path d="M368 394C390 396 430 398 450 398"/></g>
<polygon style="fill:black;stroke:black" points="370,392 364,394 370,396 370,392"/>
<text text-anchor="middle" transform="rotate(-90 409 378)" x="409" y="378" style="font-family:Helvetica;font-size:5.05">LWS, actAdd </text>
</g>
<g id="CheckEndHdr" class="node">
<ellipse cx="515" cy="399" rx="11" ry="38" style="fill:none;stroke:black"/>
<text text-anchor="middle" transform="rotate(-90 518 399)" x="518" y="399" style="font-family:Helvetica;font-size:8.83">CheckEndHdr</text>
</g>
<g id="CheckCont-&gt;CheckEndHdr" class="edge">
<g style="fill:none;stroke:black"><path d="M472 399C480 399 489 399 498 399"/></g>
<polygon style="fill:black;stroke:black" points="498,400 504,399 498,397 498,400"/>
<text text-anchor="middle" transform="rotate(-90 490 372)" x="490" y="372" style="font-family:Helvetica;font-size:5.05">CR, actData|actReset</text>
</g>
<g id="CheckEndHdr-&gt;EndMsg" class="edge">
<g style="fill:none;stroke:black"><path d="M525 382C534 368 547 346 557 331"/></g>
<polygon style="fill:black;stroke:black" points="558,333 560,326 556,331 558,333"/>
<text text-anchor="middle" transform="rotate(-90 544 338)" x="544" y="338" style="font-family:Helvetica;font-size:5.05">*, actBad</text>
</g>
<g id="CheckEndHdr-&gt;EndMsg" class="edge">
<g style="fill:none;stroke:black"><path d="M527 407C533 411 541 413 547 408 572 389 565 371 567 343"/></g>
<polygon style="fill:black;stroke:black" points="568,343 568,336 566,343 568,343"/>
<text text-anchor="middle" transform="rotate(-90 544 387)" x="544" y="387" style="font-family:Helvetica;font-size:5.05">LF, actEndHdrs</text>
</g>
<g id="InAngQ-&gt;InAng" class="edge">
<g style="fill:none;stroke:black"><path d="M424 174C428 173 434 172 438 174 441 175 446 179 450 182"/></g>
<polygon style="fill:black;stroke:black" points="424,172 418,176 424,175 424,172"/>
<text text-anchor="middle" transform="rotate(-90 436 153)" x="436" y="153" style="font-family:Helvetica;font-size:5.05">QUOT, actAdd</text>
</g>
<g id="InAngQ-&gt;InAngQ" class="edge">
<g style="fill:none;stroke:black"><path d="M469 174C470 164 468 155 461 155 456 155 453 160 453 167"/></g>
<polygon style="fill:black;stroke:black" points="451,167 453,174 454,167 451,167"/>
<text text-anchor="middle" transform="rotate(-90 463 142)" x="463" y="142" style="font-family:Helvetica;font-size:5.05">*, actAdd</text>
</g>
<g id="InAngQEsc" class="node">
<ellipse cx="515" cy="172" rx="11" ry="32" style="fill:none;stroke:black"/>
<text text-anchor="middle" transform="rotate(-90 518 172)" x="518" y="172" style="font-family:Helvetica;font-size:8.83">InAngQEsc</text>
</g>
<g id="InAngQ-&gt;InAngQEsc" class="edge">
<g style="fill:none;stroke:black"><path d="M472 192C480 192 489 192 492 191 493 191 497 188 500 186"/></g>
<polygon style="fill:black;stroke:black" points="501,187 504,182 499,185 501,187"/>
<text text-anchor="middle" transform="rotate(-90 490 167)" x="490" y="167" style="font-family:Helvetica;font-size:5.05">LSLASH, actAdd</text>
</g>
<g id="InAngQEsc-&gt;InAngQ" class="edge">
<g style="fill:none;stroke:black"><path d="M468 163C471 155 476 146 484 141 487 139 489 140 492 141 498 144 503 149 506 153"/></g>
<polygon style="fill:black;stroke:black" points="467,162 465,169 469,163 467,162"/>
<text text-anchor="middle" transform="rotate(-90 490 128)" x="490" y="128" style="font-family:Helvetica;font-size:5.05">*, actAdd</text>
</g>
<g id="InQEsc-&gt;InQ" class="edge">
<g style="fill:none;stroke:black"><path d="M422 596C429 598 435 601 438 603 441 604 446 609 451 613"/></g>
<polygon style="fill:black;stroke:black" points="424,594 418,594 424,598 424,594"/>
<text text-anchor="middle" transform="rotate(-90 436 584)" x="436" y="584" style="font-family:Helvetica;font-size:5.05">*, actAdd</text>
</g>
</g>
</svg>
